<?xml version="1.0" standalone="no"?>
<!DOCTYPE svg PUBLIC "-//W3C//DTD SVG 20010904//EN"
 "http://www.w3.org/TR/2001/REC-SVG-20010904/DTD/svg10.dtd">
<svg version="1.0" xmlns="http://www.w3.org/2000/svg"
 width="887.000000pt" height="887.000000pt" viewBox="0 0 887.000000 887.000000"
 preserveAspectRatio="xMidYMid meet">
<metadata>
Created by potrace 1.14, written by Peter Selinger 2001-2017
</metadata>
<g transform="translate(0.000000,887.000000) scale(0.100000,-0.100000)"
fill="#000000" stroke="none">
<path d="M1250 8863 c0 -12 -56 -73 -67 -73 -5 0 -26 -9 -48 -20 -22 -11 -46
-20 -55 -20 -9 0 -20 -4 -25 -9 -6 -5 -21 -11 -35 -13 -29 -4 -83 -89 -61 -96
8 -3 6 -9 -7 -18 -13 -9 -18 -21 -15 -33 3 -13 -5 -28 -26 -47 -19 -16 -29
-34 -26 -42 3 -8 -4 -21 -15 -29 -11 -8 -17 -19 -14 -25 4 -6 0 -16 -8 -22 -8
-6 -17 -16 -19 -23 -8 -22 -154 -180 -189 -204 -19 -13 -41 -30 -49 -37 -7 -7
-20 -11 -28 -8 -8 3 -21 -1 -29 -9 -19 -19 -35 -19 -109 1 -36 9 -97 15 -151
15 l-92 -1 -5 27 c-3 16 -1 35 4 43 4 8 9 12 9 8 0 -8 31 15 61 46 11 11 28
44 39 74 12 31 30 68 40 83 25 34 25 58 2 103 -22 46 -37 51 -84 26 -21 -11
-45 -20 -53 -20 -7 0 -21 -7 -29 -16 -10 -9 -24 -13 -36 -9 -32 10 -67 -21
-74 -67 -8 -48 3 -165 14 -148 5 9 12 3 21 -16 8 -16 25 -31 39 -34 35 -8 40
-40 6 -40 -49 0 -63 -23 -56 -93 14 -131 -2 -196 -54 -231 l-26 -16 0 -3935 0
-3935 4435 0 4435 0 0 396 0 396 -26 30 c-14 17 -28 44 -31 60 -3 15 -10 31
-14 34 -16 10 -10 92 8 109 13 14 16 35 15 108 -1 67 4 115 21 177 21 82 22
102 22 525 0 242 -3 455 -6 473 -4 18 -3 35 2 38 5 3 9 63 9 133 0 122 -1 128
-22 138 -42 21 -57 22 -71 8 -15 -15 -171 -40 -187 -30 -6 3 -10 12 -10 19 0
8 -8 16 -17 19 -10 3 -37 20 -60 38 -25 19 -62 36 -90 41 -78 14 -223 20 -223
9 0 -5 -6 -16 -13 -23 -7 -7 -23 -40 -35 -73 -13 -33 -34 -73 -48 -88 -24 -28
-79 -51 -95 -41 -12 7 -2 101 13 119 7 9 21 25 31 37 20 21 19 25 -15 42 -19
10 -23 20 -23 56 l0 45 -35 -3 c-19 -1 -42 -11 -52 -22 -11 -11 -23 -20 -28
-20 -5 0 -13 -12 -16 -26 -4 -16 -12 -23 -20 -20 -8 3 -14 -1 -14 -8 0 -15
-32 -30 -95 -45 -22 -5 -49 -12 -60 -15 -22 -7 -70 14 -70 29 -1 6 -9 24 -18
42 -9 18 -17 41 -17 52 0 23 43 59 79 67 14 3 34 9 43 15 10 5 29 9 42 9 14 0
28 4 31 10 3 5 17 10 31 10 35 0 54 22 54 64 0 29 5 38 30 51 17 9 30 12 30 9
0 -4 9 1 20 11 26 24 121 14 153 -16 27 -25 70 -22 75 5 2 10 -3 23 -12 28
-16 9 -21 54 -8 74 4 6 33 11 66 12 62 0 72 6 82 52 8 38 31 75 47 75 8 0 21
6 30 13 12 10 16 10 20 0 4 -8 6 -7 6 4 1 14 6 12 28 -10 15 -15 28 -36 29
-47 1 -11 3 -23 3 -26 1 -3 16 -21 34 -40 66 -70 83 -81 139 -85 29 -2 84 -6
122 -10 47 -4 76 -2 92 7 l24 12 0 1519 0 1518 -25 0 c-40 0 -62 31 -70 98 -7
64 0 122 16 122 17 0 10 48 -9 52 -23 6 -84 -11 -103 -28 -9 -8 -37 -14 -64
-14 -42 0 -52 4 -81 36 -40 42 -41 58 -8 149 45 126 104 319 104 340 0 30 35
72 75 88 41 17 42 17 89 -8 26 -14 54 -25 62 -25 12 0 14 132 14 985 l0 985
-3015 0 c-1658 0 -3015 -2 -3015 -4 0 -16 86 -81 147 -112 71 -37 73 -37 158
-30 61 4 91 3 107 -6 35 -20 72 -68 90 -116 9 -24 24 -52 32 -61 9 -10 16 -22
16 -28 0 -9 45 -45 60 -49 3 0 14 -4 25 -9 11 -4 34 -14 52 -21 24 -9 35 -22
44 -52 6 -22 22 -52 35 -67 13 -16 24 -31 24 -35 0 -15 106 -53 144 -52 137 6
132 4 129 37 -1 17 -8 62 -16 100 -18 98 -5 122 81 146 83 23 123 48 147 89
29 49 143 159 174 167 14 3 59 2 99 -4 59 -9 85 -19 128 -48 86 -60 99 -84
100 -190 1 -84 10 -137 37 -209 8 -23 8 -31 -5 -40 -8 -6 -22 -25 -31 -42 -23
-45 -75 -80 -132 -89 -57 -8 -132 -22 -156 -27 -10 -2 -23 -9 -31 -16 -18 -14
-136 -24 -140 -11 -2 5 -18 5 -41 -2 -21 -5 -35 -13 -33 -18 6 -9 -28 -63 -38
-61 -35 8 -47 -92 -20 -176 10 -33 21 -61 24 -64 3 -3 14 -22 24 -44 19 -40
12 -55 -21 -56 -7 0 -13 -4 -13 -9 0 -5 -8 -11 -17 -14 -10 -3 -29 -13 -43
-21 -14 -9 -56 -30 -94 -46 -38 -17 -123 -68 -188 -113 -66 -45 -127 -87 -136
-92 -9 -6 -24 -14 -32 -20 -8 -5 -21 -10 -29 -11 -24 -4 -111 29 -111 42 0 7
-8 19 -17 26 -10 7 -27 31 -38 53 -22 44 -35 61 -82 111 -27 28 -40 34 -76 34
-46 0 -97 -18 -97 -35 0 -5 -21 -30 -45 -54 -25 -25 -45 -48 -45 -52 0 -14
-65 -47 -105 -53 -28 -5 -59 0 -105 15 -36 11 -74 23 -85 25 -11 2 -25 11 -31
19 -6 8 -16 15 -21 15 -5 0 -29 18 -54 40 -45 41 -59 48 -59 30 0 -5 -7 -10
-15 -10 -10 0 -15 -15 -17 -57 -3 -51 -6 -58 -25 -61 -12 -2 -25 -12 -28 -23
-5 -15 -16 -19 -54 -19 -26 0 -56 6 -66 14 -11 8 -24 12 -31 9 -6 -2 -26 19
-43 46 -17 28 -45 65 -61 83 -20 20 -28 37 -24 47 4 9 6 23 6 31 0 9 26 29 66
48 57 28 79 33 151 35 74 2 85 5 102 26 15 18 18 32 13 60 -4 20 -11 42 -16
48 -6 7 -7 28 -4 47 6 31 5 33 -19 28 -14 -2 -25 0 -25 6 0 16 -124 13 -164
-3 -31 -13 -36 -13 -36 -1 0 8 -7 16 -16 18 -14 2 -18 19 -21 78 -3 41 -6 85
-6 98 -1 12 -5 22 -9 22 -5 0 -8 9 -8 19 0 11 -11 33 -25 49 -24 29 -28 30
-98 27 -92 -3 -113 -10 -122 -38 -4 -13 -8 -17 -12 -9 -6 16 -23 15 -23 -1 0
-8 -7 -27 -15 -44 -16 -32 -73 -57 -96 -42 -22 14 -51 10 -72 -8 -18 -16 -20
-16 -14 -2 4 12 1 16 -11 13 -27 -7 -48 12 -34 29 13 15 58 12 68 -4 13 -21
34 -8 34 21 0 17 5 30 10 30 6 0 10 7 10 15 0 17 -16 20 -25 5 -10 -16 -29
-12 -52 13 -44 45 -61 65 -58 69 2 2 -20 29 -49 61 -50 54 -74 106 -60 128 3
6 5 54 5 108 0 74 5 112 19 152 26 71 25 97 -6 125 -24 23 -32 24 -165 24 -76
0 -139 -3 -139 -7z m-270 -358 c0 -8 -4 -15 -10 -15 -5 0 -10 7 -10 15 0 8 5
15 10 15 6 0 10 -7 10 -15z m128 3 c19 -19 14 -44 -12 -72 -29 -32 -41 -32
-71 -2 -14 14 -35 27 -47 29 -13 2 -2 5 23 6 38 1 48 5 57 26 13 27 31 32 50
13z m6392 -252 c68 -62 85 -76 92 -76 5 0 29 -43 54 -95 51 -107 51 -104 -19
-187 -22 -27 -48 -48 -57 -48 -9 0 -49 -16 -89 -35 -81 -40 -95 -41 -151 -19
-77 31 -90 112 -41 255 47 134 69 189 83 206 31 38 85 38 128 -1z m-7355 -76
c3 -5 1 -10 -4 -10 -6 0 -11 5 -11 10 0 6 2 10 4 10 3 0 8 -4 11 -10z m7426
-649 c29 -14 54 -71 44 -101 -4 -11 -10 -18 -15 -15 -15 9 -22 -35 -15 -91 4
-36 3 -54 -4 -54 -17 0 -13 -69 6 -100 9 -16 33 -37 52 -47 20 -10 42 -24 49
-30 7 -7 36 -13 63 -13 36 0 61 -7 92 -26 23 -15 44 -30 47 -34 3 -4 10 -9 17
-11 15 -5 85 -64 133 -111 47 -46 73 -118 61 -168 -24 -96 -49 -120 -128 -120
-28 0 -55 5 -58 10 -3 6 -13 10 -21 10 -8 0 -25 10 -37 23 -40 41 -95 77 -118
77 -27 0 -90 -64 -110 -112 -7 -18 -42 -66 -76 -106 -35 -40 -69 -84 -75 -97
-21 -45 -70 -60 -206 -60 l-123 0 -45 -50 c-139 -156 -192 -191 -270 -182 -60
6 -83 34 -138 167 -26 63 -61 142 -76 175 -16 33 -36 81 -45 107 -15 46 -15
49 4 69 11 12 23 36 27 53 4 17 12 44 19 61 7 16 18 48 23 70 6 22 18 66 27
98 9 31 14 61 11 66 -3 4 8 35 25 67 42 81 87 188 110 257 27 85 47 113 100
141 48 27 90 31 164 17 40 -7 143 13 156 31 3 4 58 9 123 11 97 2 120 6 127
19 10 18 40 18 80 -1z m-2181 -161 c0 -5 -5 -10 -11 -10 -5 0 -7 5 -4 10 3 6
8 10 11 10 2 0 4 -4 4 -10z m-113 -55 c-4 -8 -11 -15 -17 -15 -6 0 -6 7 2 20
14 22 24 19 15 -5z m125 -7 c-7 -7 -12 -8 -12 -2 0 14 12 26 19 19 2 -3 -1
-11 -7 -17z m-1162 -38 c0 -5 -5 -10 -11 -10 -5 0 -7 5 -4 10 3 6 8 10 11 10
2 0 4 -4 4 -10z m910 -9 c0 -11 39 -11 45 0 4 5 11 9 17 9 18 0 -10 -27 -42
-40 -17 -7 -30 -19 -30 -26 0 -8 -4 -14 -10 -14 -13 0 -13 27 1 32 14 5 0 38
-16 38 -7 0 -15 -6 -18 -12 -2 -7 -7 -10 -11 -7 -16 15 6 35 34 31 17 -2 30
-7 30 -11z m150 13 c0 -20 -22 -52 -33 -48 -15 5 -18 35 -4 45 8 6 37 8 37 3z
m150 -4 c0 -5 -5 -10 -11 -10 -5 0 -7 5 -4 10 3 6 8 10 11 10 2 0 4 -4 4 -10z
m92 -14 c6 4 5 -3 -2 -15 -6 -12 -18 -25 -26 -28 -8 -3 -14 -9 -14 -15 0 -5
-11 -21 -25 -36 -25 -26 -25 -26 -25 -4 0 12 -5 22 -11 22 -17 0 -38 -32 -39
-58 0 -13 -8 -25 -17 -28 -10 -3 -26 -10 -36 -15 -16 -9 -18 -7 -12 10 4 12 2
21 -4 21 -14 0 -29 -32 -23 -49 2 -7 -1 -17 -8 -21 -20 -12 -2 -32 19 -20 10
5 21 6 25 2 4 -3 4 2 0 12 -7 18 13 37 44 42 8 2 20 11 28 21 11 15 15 16 23
4 7 -11 11 -10 19 5 6 10 14 16 18 12 4 -4 2 -13 -3 -20 -6 -7 -14 -24 -18
-36 -6 -22 -5 -23 15 -12 14 8 19 15 12 19 -7 4 -4 11 8 19 21 13 35 1 26 -23
-7 -19 13 -19 33 -1 21 18 66 32 57 17 -4 -6 -14 -11 -22 -11 -8 0 -14 -4 -14
-10 0 -14 12 -12 38 6 12 8 22 11 22 6 0 -10 -97 -71 -147 -93 -17 -7 -30 -16
-27 -20 2 -4 0 -10 -6 -14 -5 -3 -10 -11 -10 -16 0 -6 5 -7 12 -3 6 4 30 7 52
6 28 -1 37 1 26 7 -8 6 -19 7 -25 4 -5 -4 1 6 15 21 15 16 32 25 42 23 10 -3
21 -1 24 4 8 14 25 11 22 -4 -2 -7 -1 -14 2 -15 9 -6 45 12 57 27 9 13 11 12
10 -10 -2 -25 -27 -62 -27 -39 0 5 -5 10 -11 10 -6 0 -9 -7 -5 -15 3 -8 0 -14
-7 -12 -7 1 -11 -4 -9 -12 1 -7 -3 -19 -9 -27 -8 -9 -8 -14 -1 -14 6 0 14 5
17 10 3 6 11 10 16 10 6 0 7 -6 3 -12 -5 -9 -2 -9 9 1 9 7 17 19 17 26 0 7 11
15 25 17 27 6 32 -1 13 -20 -18 -18 3 -14 24 5 25 22 36 8 13 -17 -14 -15 -15
-20 -4 -20 12 0 12 -2 0 -9 -8 -5 -20 -7 -28 -4 -7 3 -13 0 -13 -6 0 -6 8 -12
18 -12 16 -1 16 -2 0 -6 -10 -2 -18 -9 -18 -15 0 -5 8 -7 18 -4 9 3 4 -6 -13
-21 -16 -14 -25 -24 -20 -22 6 3 27 13 48 22 20 10 63 35 95 57 63 44 81 51
55 20 -10 -11 -23 -20 -29 -20 -6 0 -17 -6 -23 -14 -9 -11 -6 -13 19 -11 21 1
38 12 58 38 15 20 32 36 38 37 13 0 43 31 43 45 0 5 5 11 12 14 7 2 9 -1 5 -8
-12 -18 30 -13 45 7 12 15 12 16 -2 5 -9 -7 -19 -10 -22 -6 -11 11 30 33 49
26 13 -5 15 -3 9 7 -5 9 -4 11 3 6 7 -4 24 5 39 19 30 29 69 53 60 37 -4 -5
12 -24 34 -41 23 -19 38 -39 37 -49 -2 -12 5 -18 26 -20 22 -3 26 -6 15 -13
-11 -7 -6 -16 24 -43 20 -19 37 -39 37 -45 0 -6 6 -11 13 -11 12 0 37 -44 37
-66 0 -6 7 -15 16 -18 9 -3 14 -13 10 -21 -3 -8 -1 -17 4 -20 9 -5 51 -90 70
-140 5 -14 14 -25 20 -25 5 0 10 -15 10 -33 0 -42 22 -110 68 -207 64 -137 90
-221 107 -345 16 -112 17 -125 7 -125 -7 0 -8 -10 -2 -30 5 -19 5 -32 -2 -36
-7 -4 -7 -9 0 -13 12 -7 -3 -86 -20 -108 -5 -7 -5 -14 2 -18 16 -10 12 -25 -7
-25 -10 0 -14 -4 -8 -8 15 -11 18 -42 3 -42 -7 1 -49 7 -93 15 -212 39 -523
78 -835 105 -74 7 -214 20 -310 31 -97 11 -196 17 -220 14 -34 -4 -41 -2 -30
5 11 9 5 10 -27 8 -24 -2 -43 0 -43 4 0 5 -17 7 -37 7 l-38 -2 35 -8 c36 -8 2
-6 -246 12 -71 5 -140 10 -154 10 -14 0 -41 6 -60 14 -19 9 -73 19 -120 24
l-85 10 115 -4 c144 -5 78 8 -125 24 -325 25 -623 34 -753 23 -70 -6 -161 -14
-203 -17 l-75 -6 0 40 c1 43 2 43 63 25 17 -5 22 -1 25 17 2 15 12 25 28 29
24 6 24 6 5 18 -11 6 -14 12 -7 12 6 0 12 9 12 20 0 18 10 25 33 21 4 0 7 3 7
9 0 17 18 11 23 -7 2 -10 4 -1 4 20 1 41 -4 45 -23 20 -10 -15 -12 -7 -7 47 5
47 11 69 25 78 10 7 15 18 12 24 -4 6 -9 7 -13 0 -7 -11 -51 -26 -51 -17 0 4
7 13 15 21 17 18 20 54 4 54 -5 0 -8 -4 -4 -9 3 -5 1 -12 -5 -16 -5 -3 -10 3
-10 14 0 12 5 21 12 21 6 0 8 3 5 7 -4 3 -2 12 4 20 9 10 8 13 -5 13 -18 0
-22 16 -4 22 19 7 1 38 -22 38 -15 0 -20 7 -20 24 0 14 -4 28 -10 31 -6 4 -4
16 6 31 16 23 16 24 -10 24 -16 0 -25 4 -21 10 9 14 55 12 55 -2 0 -7 5 -5 11
5 6 10 9 23 6 30 -2 7 3 17 12 24 14 11 14 12 -2 13 -11 0 -17 6 -14 13 2 6 0
22 -4 35 -7 19 -5 24 14 31 12 5 20 12 17 17 -3 5 11 17 30 26 28 15 31 18 13
18 -16 0 -21 4 -16 15 3 9 11 14 17 12 18 -7 46 12 40 27 -7 19 16 32 27 15
17 -26 22 -61 10 -69 -15 -9 -25 -80 -12 -80 6 0 12 4 16 10 3 5 13 6 21 3 9
-3 20 0 25 8 6 10 8 9 7 -6 -1 -11 2 -29 6 -41 4 -14 1 -26 -9 -34 -17 -14
-21 -70 -4 -70 6 0 13 9 16 20 3 11 10 20 15 20 11 0 2 -17 -24 -46 -13 -14
-16 -24 -9 -29 6 -3 11 -1 11 4 0 6 9 11 20 11 25 0 26 -16 3 -29 -16 -9 -13
-11 14 -17 28 -5 30 -8 18 -21 -12 -11 -12 -18 -2 -34 18 -28 40 -19 50 21 4
19 12 48 17 64 11 33 4 49 -10 26 -6 -10 -8 8 -7 53 3 50 0 67 -10 67 -7 0
-13 -7 -13 -15 0 -8 -4 -15 -9 -15 -23 0 -20 23 8 64 29 44 32 74 8 103 -5 7
-7 19 -4 27 3 8 -1 17 -10 20 -14 6 -13 10 8 32 21 22 24 23 30 7 4 -12 8 -3
13 25 3 24 13 45 21 48 7 3 17 19 20 35 4 16 11 27 16 23 5 -3 9 1 9 9 0 8 9
26 21 41 11 14 16 26 10 26 -6 0 -8 7 -5 15 4 8 17 15 30 15 13 0 24 2 24 5 0
13 -43 49 -46 40 -13 -33 -22 -38 -38 -23 -14 15 -13 17 9 22 14 4 25 12 25
19 0 8 11 24 25 37 20 19 27 21 40 10 9 -7 25 -10 41 -6 22 6 25 4 20 -9 -4
-13 -2 -14 14 -5 10 6 24 18 29 28 10 16 10 16 11 0 0 -12 8 -18 23 -18 21 1
21 1 3 15 -19 14 -18 15 14 21 20 5 35 14 38 26 2 11 10 17 18 14 7 -3 14 0
16 6 3 7 20 1 43 -15 22 -15 50 -27 63 -27 13 0 21 -4 18 -9 -3 -4 8 -7 24 -5
17 2 36 -3 45 -12 8 -9 21 -14 28 -11 6 2 22 -7 34 -20 12 -12 33 -23 46 -23
20 0 23 -4 20 -24 -4 -18 0 -26 15 -30 11 -4 24 -6 28 -4 17 4 54 -13 49 -23
-3 -5 1 -6 9 -3 10 4 16 1 16 -8 0 -26 66 -85 94 -85 14 0 26 3 26 8 0 11 36
6 47 -6 5 -4 2 -5 -4 -1 -7 4 -13 2 -13 -3 0 -6 11 -11 25 -11 14 0 28 -6 31
-14 3 -8 12 -12 21 -9 8 3 19 0 23 -7 7 -11 11 -11 24 -1 14 12 16 10 16 -8 0
-12 8 -25 18 -28 9 -4 23 -14 30 -22 11 -14 12 -11 6 19 -6 33 -5 34 10 15 8
-11 16 -26 16 -32 0 -15 20 -18 20 -3 0 18 18 11 25 -9 4 -12 12 -18 20 -14 8
3 12 10 8 17 -3 6 5 1 19 -11 28 -26 47 -31 28 -8 -7 9 -10 19 -6 23 4 4 13
-1 20 -11 18 -24 24 -21 22 8 0 14 -5 25 -10 25 -5 0 -6 3 -3 6 4 4 12 2 19
-3 20 -17 62 -27 54 -14 -4 6 -1 11 6 11 10 0 10 2 -1 9 -8 5 -21 7 -30 4 -12
-4 -13 -3 -5 6 11 13 74 4 74 -10 0 -16 41 -9 62 11 18 16 19 20 6 20 -9 0
-24 -7 -32 -16 -15 -14 -16 -13 -16 10 0 14 -4 26 -10 26 -5 0 -10 9 -10 20 0
23 -13 26 -29 6 -7 -8 -27 -18 -44 -22 -18 -4 -26 -9 -19 -11 6 -3 12 -9 12
-15 0 -6 -6 -6 -15 2 -8 7 -13 16 -10 20 3 4 -4 10 -15 13 -11 3 -20 13 -20
22 0 15 2 16 18 4 9 -8 20 -18 24 -24 5 -6 12 -5 20 3 9 9 9 15 1 23 -9 9 -5
18 13 36 13 13 24 30 24 38 0 22 -14 18 -25 -7 -14 -33 -41 -35 -47 -4 -3 15
-1 24 6 23 13 -2 9 42 -5 59 -10 13 -2 44 12 44 5 0 9 -4 9 -9 0 -6 18 -10 39
-9 31 0 41 5 50 25 13 29 14 36 2 28 -5 -3 -12 -1 -15 4 -4 5 -2 12 3 15 5 4
13 2 16 -4 4 -6 16 -8 28 -4 22 6 22 6 -1 -16 -24 -23 -23 -42 1 -22 8 7 17 9
20 5 4 -3 7 -2 7 4 0 6 9 13 20 16 25 6 26 24 3 30 -15 4 -15 5 -2 6 9 0 29
-10 45 -24 l29 -25 18 22 c10 13 25 31 32 41 8 9 10 17 4 17 -5 0 -7 5 -3 12
6 9 9 9 12 0 2 -7 8 -9 14 -6z m-552 -17 c0 -5 -4 -9 -10 -9 -5 0 -10 7 -10
16 0 8 5 12 10 9 6 -3 10 -10 10 -16z m240 -15 c-18 -21 -24 -10 -8 15 7 12
14 17 16 11 2 -6 -2 -17 -8 -26z m120 26 c0 -5 -4 -10 -10 -10 -5 0 -10 5 -10
10 0 6 5 10 10 10 6 0 10 -4 10 -10z m-280 -19 c0 -11 -50 -44 -57 -38 -7 7
30 45 45 46 6 1 12 -3 12 -8z m420 -5 c0 -2 -7 -6 -15 -10 -8 -3 -15 -1 -15 4
0 6 7 10 15 10 8 0 15 -2 15 -4z m115 -26 c-3 -5 -12 -10 -18 -10 -7 0 -6 4 3
10 19 12 23 12 15 0z m870 -9 c60 -36 91 -74 98 -118 9 -55 -15 -116 -57 -145
-17 -12 -37 -28 -44 -35 -7 -7 -26 -13 -41 -13 -23 0 -35 10 -63 53 -44 65
-116 139 -129 132 -5 -4 -9 -1 -9 4 0 6 7 11 15 11 10 0 15 11 15 35 0 28 4
35 20 35 11 0 20 6 20 13 0 42 121 62 175 28z m-765 -11 c0 -5 -9 -14 -20 -20
-24 -13 -26 -7 -4 14 18 18 24 20 24 6z m-130 -12 c0 -4 -7 -8 -15 -8 -8 0
-15 4 -15 8 0 5 7 9 15 9 8 0 15 -4 15 -9z m-473 -7 c8 7 13 8 13 1 0 -5 -7
-15 -16 -23 -13 -10 -17 -10 -25 2 -13 20 -11 35 3 21 8 -8 15 -9 25 -1z m179
-18 c-10 -10 -19 5 -10 18 6 11 8 11 12 0 2 -7 1 -15 -2 -18z m434 10 c-56
-40 -120 -63 -72 -27 16 13 16 13 -2 14 -16 0 -17 3 -8 12 10 10 15 10 21 -1
7 -11 13 -11 37 2 40 21 54 21 24 0z m-285 -13 c-3 -5 -11 -10 -16 -10 -6 0
-7 5 -4 10 3 6 11 10 16 10 6 0 7 -4 4 -10z m370 -5 c-51 -19 -67 -18 -35 0
14 8 36 14 50 14 20 0 17 -3 -15 -14z m325 5 c0 -5 -8 -10 -17 -10 -15 0 -16
2 -3 10 19 12 20 12 20 0z m-1046 -39 c-2 -2 -10 1 -17 8 -8 6 -23 9 -33 5
-18 -5 -18 -5 -1 9 17 14 20 14 36 -1 10 -9 16 -19 15 -21z m3266 27 c0 -9 3
-9 9 1 7 11 13 10 32 -8 19 -17 23 -31 21 -67 -2 -55 -9 -69 -27 -54 -8 7 -15
7 -19 1 -4 -5 -20 -17 -38 -25 -24 -13 -34 -13 -47 -4 -54 40 -53 69 2 125 42
43 67 54 67 31z m-3181 -13 c-10 -10 -22 -13 -35 -8 -17 6 -17 8 6 14 40 11
45 10 29 -6z m391 11 c0 -3 -4 -8 -10 -11 -5 -3 -10 -1 -10 4 0 6 5 11 10 11
6 0 10 -2 10 -4z m32 -18 c-7 -7 -12 -8 -12 -2 0 14 12 26 19 19 2 -3 -1 -11
-7 -17z m138 -18 c0 -5 -12 -13 -27 -16 -32 -8 -53 -27 -53 -46 0 -10 -3 -9
-10 2 -11 18 15 50 42 50 10 0 21 7 24 15 6 15 24 11 24 -5z m-535 0 c-3 -5
-10 -10 -16 -10 -5 0 -9 5 -9 10 0 6 7 10 16 10 8 0 12 -4 9 -10z m935 5 c0
-9 -44 -23 -54 -18 -4 3 -2 9 5 14 15 10 49 12 49 4z m-355 -15 c-3 -5 -11
-10 -16 -10 -6 0 -7 5 -4 10 3 6 11 10 16 10 6 0 7 -4 4 -10z m385 4 c0 -12
-64 -63 -72 -57 -5 3 1 12 14 21 13 9 27 22 31 29 8 13 27 18 27 7z m-343 -18
c-15 -12 -17 -18 -7 -35 11 -22 6 -41 -11 -41 -5 0 -9 6 -8 13 5 41 -11 50
-29 15 l-12 -23 3 25 c1 17 13 30 37 42 42 21 52 22 27 4z m-1885 -54 c-7 -2
-12 -10 -12 -18 0 -14 -12 -19 -22 -8 -9 8 25 42 37 36 5 -3 4 -7 -3 -10z
m876 -24 c8 -10 11 -18 6 -18 -17 0 -34 23 -33 45 0 14 2 16 6 5 3 -8 12 -23
21 -32z m802 32 c0 -5 -2 -10 -4 -10 -3 0 -8 5 -11 10 -3 6 -1 10 4 10 6 0 11
-4 11 -10z m-882 -35 c-3 -3 -9 2 -12 12 -6 14 -5 15 5 6 7 -7 10 -15 7 -18z
m1005 10 c-3 -9 -8 -14 -10 -11 -3 3 -2 9 2 15 9 16 15 13 8 -4z m-2003 -30
c-16 -19 -41 -20 -34 -1 5 14 34 26 43 19 2 -1 -2 -9 -9 -18z m2110 21 c0 -3
-4 -8 -10 -11 -5 -3 -10 -1 -10 4 0 6 5 11 10 11 6 0 10 -2 10 -4z m-715 -16
c3 -5 1 -10 -4 -10 -6 0 -11 5 -11 10 0 6 2 10 4 10 3 0 8 -4 11 -10z m743
-40 c-2 -6 -8 -6 -18 0 -13 9 -13 11 0 20 15 10 25 0 18 -20z m-699 -35 c0 -5
-6 -1 -14 9 -8 11 -15 27 -15 35 1 17 29 -26 29 -44z m121 15 c11 -7 7 -10
-17 -10 -18 0 -33 5 -33 10 0 13 30 13 50 0z m-1580 -140 c0 -5 -7 -10 -16
-10 -8 0 -12 5 -9 10 3 6 10 10 16 10 5 0 9 -4 9 -10z m100 -71 c0 -24 -23
-21 -28 4 -2 10 3 17 12 17 10 0 16 -9 16 -21z m-2283 -383 c-4 -9 -14 -15
-24 -15 -15 1 -16 2 -2 6 12 3 15 11 12 26 -5 17 -3 20 7 10 7 -6 10 -19 7
-27z m-1467 -556 c0 -6 8 -10 18 -8 12 2 18 -5 20 -24 4 -35 -15 -36 -30 -3
-6 14 -17 25 -25 25 -7 0 -13 5 -13 10 0 6 7 10 15 10 8 0 15 -5 15 -10z
m3520 -88 c0 -13 -12 -22 -22 -16 -10 6 -1 24 13 24 5 0 9 -4 9 -8z m-790 -37
c22 -14 44 -25 49 -25 5 0 19 -12 30 -26 17 -21 21 -41 21 -94 0 -65 -15 -130
-29 -130 -4 0 -23 35 -43 78 -36 77 -120 175 -160 188 -10 3 -18 9 -18 13 0
32 98 29 150 -4z m1920 0 c25 -7 65 -18 90 -25 45 -13 45 -13 18 -22 -26 -9
-40 -38 -18 -38 6 0 10 -4 10 -10 0 -5 -14 -10 -31 -10 -17 0 -28 -4 -24 -10
3 -5 -4 -10 -17 -11 -13 0 -45 -2 -72 -4 -52 -3 -86 18 -86 52 0 12 -3 14 -11
6 -7 -7 -17 -7 -35 1 -33 15 -30 30 4 21 19 -5 24 -3 16 5 -9 9 -34 14 -95 19
-4 1 -6 11 -5 24 1 23 2 23 106 19 58 -2 125 -9 150 -17z m-1110 -24 c0 -6 -4
-13 -10 -16 -5 -3 -10 1 -10 9 0 9 5 16 10 16 6 0 10 -4 10 -9z m875 -19 c17
-9 17 -11 3 -12 -9 0 -24 -3 -34 -7 -13 -5 -16 -3 -11 9 4 12 1 14 -14 11 -10
-3 -19 -1 -19 4 0 13 50 9 75 -5z m1405 -91 c25 -6 57 -13 73 -16 27 -5 39
-35 13 -35 -7 0 -19 -6 -25 -14 -9 -11 -8 -15 6 -21 30 -12 -65 -36 -117 -30
-44 4 -70 24 -70 52 0 13 -31 18 -95 16 -20 -1 -8 6 37 20 37 12 73 28 80 35
13 13 18 13 98 -7z m-3291 -181 c0 -30 -4 -77 -9 -105 -5 -27 -15 -88 -21
-135 -16 -122 -18 -130 -34 -130 -10 0 -15 10 -15 31 0 16 -4 28 -8 25 -4 -2
-14 -1 -22 4 -12 7 -15 36 -17 127 -1 65 -2 128 -2 141 -1 28 -21 19 -21 -9 0
-10 -7 -19 -15 -19 -9 0 -29 -13 -45 -30 -34 -35 -75 -40 -83 -10 -6 23 7 36
47 46 16 4 31 15 33 25 5 17 30 32 49 28 25 -4 34 4 34 32 0 22 5 32 20 36 11
3 20 12 20 19 0 8 7 17 15 20 8 4 15 12 15 19 0 8 8 21 17 31 16 16 18 13 30
-37 6 -30 12 -79 12 -109z m152 -68 c8 -24 8 -41 0 -60 -6 -15 -12 -49 -14
-77 -2 -27 -11 -64 -20 -82 -13 -24 -17 -59 -17 -136 0 -95 -2 -105 -19 -110
-29 -7 -49 21 -57 81 -7 57 9 135 34 164 10 13 13 30 9 60 -5 37 -1 64 28 178
2 8 4 21 4 28 2 23 40 -11 52 -46z m3219 -8 c0 -8 -4 -12 -10 -9 -5 3 -10 10
-10 16 0 5 5 9 10 9 6 0 10 -7 10 -16z m38 -44 c17 -28 4 -50 -15 -25 -14 21
-17 45 -5 45 4 0 13 -9 20 -20z m-677 -83 c38 -29 89 -155 139 -340 23 -89 42
-131 75 -167 12 -14 35 -50 51 -80 16 -30 35 -62 43 -70 25 -26 81 -118 81
-133 0 -35 30 -42 200 -45 93 -2 193 1 226 7 93 17 337 143 389 201 24 26 75
54 75 41 0 -5 -7 -12 -16 -15 -14 -5 -14 -9 -3 -23 8 -9 9 -14 2 -10 -7 4 -15
-5 -22 -25 -11 -30 -11 -31 8 -13 20 17 20 16 17 -21 -5 -52 -6 -53 -18 -24
-11 25 -11 25 -15 2 -3 -12 5 -33 16 -48 13 -17 21 -41 21 -66 0 -35 -2 -38
-22 -33 -35 8 -52 -9 -52 -54 0 -22 -3 -38 -7 -35 -7 4 -19 -62 -24 -139 -2
-26 -7 -53 -12 -60 -4 -6 -8 -23 -9 -37 -1 -38 -32 -224 -56 -335 -12 -55 -22
-115 -22 -132 -1 -22 -6 -33 -16 -33 -12 0 -13 -2 -1 -9 11 -7 11 -16 -4 -54
-9 -25 -14 -54 -10 -66 4 -15 2 -21 -9 -21 -10 0 -16 12 -18 38 l-3 37 -13
-40 c-22 -65 -56 -126 -69 -121 -6 3 -13 -4 -16 -14 -3 -11 0 -21 6 -23 11 -3
-42 -61 -60 -64 -6 -1 -9 10 -7 27 2 17 -1 30 -7 30 -6 0 -7 -4 -4 -10 3 -5
-5 -15 -19 -22 -31 -13 -35 -32 -6 -23 14 4 20 2 20 -9 0 -8 -9 -20 -20 -26
-16 -9 -20 -8 -20 5 0 20 -16 19 -30 -2 -9 -15 -10 -12 -6 15 7 40 -10 43 -19
2 -4 -16 -11 -32 -16 -35 -15 -10 -10 -25 8 -25 15 0 15 -2 -3 -21 -12 -11
-29 -22 -40 -23 -14 -2 -18 -10 -15 -27 3 -23 2 -23 -16 -6 -11 9 -25 17 -32
17 -8 0 -10 7 -5 22 6 20 5 21 -10 9 -9 -7 -16 -28 -17 -45 l-1 -31 -9 31
c-11 38 -39 66 -39 40 0 -9 7 -19 15 -22 8 -4 12 -10 9 -16 -3 -5 -18 4 -33
21 -21 24 -30 28 -39 19 -17 -17 -15 -38 3 -32 10 4 15 0 15 -14 0 -11 5 -22
12 -24 7 -3 3 -13 -11 -27 -17 -17 -22 -30 -17 -52 5 -26 -1 -34 -21 -26 -4 1
-6 15 -4 32 3 25 1 27 -13 16 -9 -7 -14 -17 -11 -21 3 -5 1 -11 -4 -15 -6 -3
-8 -12 -4 -20 3 -10 -1 -15 -11 -15 -11 0 -16 -7 -14 -17 2 -10 -3 -17 -9 -15
-7 1 -13 -5 -13 -13 0 -19 -19 -19 -26 0 -4 8 -12 15 -20 15 -19 0 -18 -16 2
-24 8 -3 12 -10 9 -16 -4 -6 -11 -8 -16 -5 -16 11 -10 -7 9 -22 16 -14 16 -14
-2 -9 -11 4 -23 0 -31 -10 -11 -15 -16 -15 -43 -3 -17 7 -36 24 -43 36 -18 34
-29 28 -16 -9 9 -24 9 -32 0 -35 -10 -4 -9 -12 3 -35 20 -39 8 -51 -18 -15
-24 33 -38 35 -31 5 11 -43 -21 -1 -37 50 -12 36 -25 53 -58 75 -32 21 -46 26
-56 18 -10 -8 -20 -2 -42 25 -16 20 -35 42 -42 49 -8 9 -9 16 -2 20 8 5 8 11
0 20 -7 8 -9 23 -6 33 4 11 0 24 -9 32 -8 7 -15 20 -15 29 0 10 -9 17 -20 18
-11 1 -20 -2 -20 -7 0 -5 -7 -7 -16 -3 -8 3 -13 11 -11 17 3 6 -2 17 -9 24
-12 11 -15 8 -20 -17 -4 -17 -11 -28 -16 -25 -6 4 -8 17 -5 30 2 13 1 24 -4
24 -4 0 -11 10 -15 22 -6 19 -7 19 -16 4 -5 -9 -13 -14 -18 -11 -4 3 -5 -7 -1
-22 5 -17 14 -27 24 -27 10 1 17 -4 17 -12 0 -8 -7 -14 -15 -14 -8 0 -18 -1
-22 -2 -4 -2 -11 12 -15 29 -5 18 -12 32 -16 32 -22 -4 -34 3 -28 16 3 8 1 15
-4 15 -13 0 -22 -35 -14 -64 5 -20 2 -26 -9 -26 -13 0 -14 -5 -5 -30 5 -17 18
-36 27 -43 10 -6 24 -26 31 -44 12 -25 17 -30 28 -20 21 17 45 -18 31 -44 -7
-14 -6 -19 3 -19 7 0 5 -5 -6 -11 -14 -9 -20 -8 -27 2 -6 10 -9 11 -9 2 0 -20
4 -28 13 -25 4 1 7 -2 7 -7 0 -5 -8 -11 -17 -13 -16 -3 -16 -4 0 -20 22 -22
24 -46 2 -28 -8 7 -15 10 -15 6 0 -3 -9 2 -20 11 -11 10 -20 23 -20 30 0 7 -4
13 -10 13 -16 0 -12 -20 10 -47 11 -14 20 -32 20 -40 0 -8 5 -11 12 -7 7 4 8
3 4 -4 -13 -22 -42 5 -67 60 -12 29 -22 59 -20 66 1 6 -3 12 -8 12 -6 0 -8 7
-5 15 4 8 -1 17 -10 21 -20 8 -21 44 -1 44 32 0 13 16 -20 17 -19 1 -35 -4
-35 -9 0 -6 6 -8 13 -5 8 3 14 -1 14 -9 0 -8 -6 -14 -14 -14 -22 0 -14 -18 10
-22 15 -2 22 -10 23 -25 1 -13 7 -29 13 -37 7 -8 11 -23 9 -33 -2 -10 3 -23
12 -30 8 -6 11 -15 7 -19 -4 -5 -12 -2 -17 6 -13 20 -13 4 0 -18 5 -9 14 -29
20 -44 6 -19 17 -28 32 -29 22 -1 22 -1 -2 -8 -22 -6 -27 -2 -41 30 -17 37
-43 64 -37 38 4 -20 -3 -22 -34 -10 -19 7 -26 15 -22 25 4 10 -3 20 -19 27
-14 6 -28 21 -31 32 -3 12 -8 18 -11 15 -4 -3 -2 -15 4 -27 7 -12 7 -22 1 -26
-5 -3 -19 14 -32 37 -16 31 -23 38 -26 26 -4 -21 -21 -24 -23 -5 -1 6 -1 28 0
47 0 28 -1 31 -8 15 -5 -11 -7 -23 -5 -26 2 -4 -3 -12 -11 -19 -13 -10 -19
-10 -33 4 -10 9 -24 16 -30 16 -7 0 -12 7 -12 15 0 9 -6 12 -15 9 -9 -4 -15 0
-15 10 0 9 -4 16 -10 16 -5 0 -10 -4 -10 -9 0 -6 5 -13 10 -16 6 -3 10 -10 10
-16 0 -5 -4 -9 -10 -9 -5 0 -10 7 -10 16 0 8 -4 13 -9 9 -5 -3 -11 7 -13 22
l-3 28 -15 -32 c-8 -18 -19 -33 -23 -33 -4 0 -13 -13 -18 -30 -6 -16 -15 -28
-19 -25 -5 3 -12 0 -16 -6 -13 -21 -23 13 -18 63 2 31 0 47 -6 43 -6 -3 -10
-2 -10 4 0 5 5 13 10 16 13 8 13 45 0 45 -6 0 -15 -12 -21 -27 -10 -26 -12
-27 -19 -8 -7 18 -8 18 -15 -7 -8 -31 -11 -33 -29 -15 -15 15 -12 63 6 85 11
15 11 15 -4 4 -9 -7 -19 -24 -22 -37 -6 -24 -26 -35 -26 -15 0 5 -7 7 -16 3
-13 -5 -14 1 -10 33 3 22 3 33 0 27 -3 -7 -12 -13 -20 -13 -9 0 -12 5 -9 10 3
6 2 10 -4 10 -5 0 -12 -8 -14 -17 -4 -14 -5 -12 -6 5 0 12 -6 21 -13 20 -7 -2
-17 7 -23 19 -5 13 -13 23 -18 23 -4 0 -5 5 -2 10 3 6 0 10 -9 10 -8 0 -17 -6
-19 -12 -3 -8 -6 -6 -6 5 -1 9 -5 17 -11 17 -17 0 -11 16 14 43 18 19 22 33
18 49 -6 20 -7 19 -10 -9 -2 -22 -10 -34 -23 -38 -30 -10 -36 3 -11 21 12 8
22 21 21 27 0 9 -2 9 -6 0 -2 -7 -9 -13 -15 -13 -6 0 -4 8 5 18 10 10 17 27
17 38 0 10 -4 15 -8 9 -4 -5 -20 -11 -37 -13 -37 -4 -37 -5 -37 -36 0 -26 -22
-26 -32 0 -3 7 -12 11 -21 8 -10 -4 -15 0 -15 10 0 9 -4 16 -9 16 -5 0 -11 11
-13 25 -3 14 -1 25 3 25 5 0 6 6 3 14 -3 8 -12 12 -20 9 -12 -4 -14 0 -8 22 4
15 1 36 -6 51 -11 19 -11 28 -1 48 11 19 11 28 0 47 l-14 24 -3 -30 c-1 -16
-5 -41 -8 -54 -10 -48 -25 1 -18 62 4 40 3 57 -6 57 -6 0 -10 -10 -8 -22 2
-18 -2 -23 -17 -21 -19 1 -19 1 -2 -11 19 -15 23 -36 6 -36 -7 0 -9 -10 -5
-24 7 -27 -8 -45 -18 -21 -5 13 -9 12 -26 -5 -12 -12 -26 -17 -37 -13 -30 10
-44 25 -39 40 3 7 3 20 -1 29 -5 13 -7 13 -14 2 -7 -11 -11 -10 -18 2 -7 10
-6 17 2 22 9 6 9 8 0 8 -7 0 -13 7 -13 15 0 8 -7 15 -15 15 -8 0 -15 -9 -15
-19 0 -41 -15 -27 -18 16 -2 37 0 44 13 39 15 -5 17 -2 17 34 0 32 -1 32 -27
3 -22 -25 -24 -26 -25 -8 -1 35 -36 129 -44 117 -5 -9 -12 -9 -26 0 -26 16
-16 27 20 22 22 -4 30 -1 30 10 0 19 -17 30 -25 16 -4 -6 -11 -8 -16 -4 -9 5
-8 21 7 86 5 20 2 29 -10 34 -9 3 -14 9 -11 13 2 4 0 21 -4 37 l-8 29 -12 -26
c-10 -21 -10 -33 3 -64 20 -46 15 -54 -14 -25 -19 19 -20 27 -14 93 5 40 6 77
5 82 -2 6 -3 18 -3 28 1 22 -15 22 -27 -1 -6 -12 -6 -23 -1 -28 6 -6 6 -15 0
-24 -13 -20 -49 62 -43 98 3 15 4 46 4 70 0 23 4 42 9 42 6 0 10 -5 10 -11 0
-6 7 -8 16 -5 12 4 14 1 9 -14 -5 -15 -3 -18 9 -14 9 3 15 17 14 32 -1 15 2
40 7 56 6 21 5 27 -4 22 -6 -4 -9 -12 -6 -17 4 -5 1 -9 -4 -9 -6 0 -11 -10
-11 -22 0 -20 -1 -20 -18 -5 -20 18 -21 75 -4 155 7 31 6 42 -3 42 -16 0 -8
49 12 72 9 10 12 22 7 30 -5 7 -7 23 -5 36 1 13 -2 29 -8 35 -5 7 -6 19 -2 26
10 15 3 51 -10 51 -5 0 -9 7 -9 15 0 8 6 15 14 15 21 0 29 86 12 121 -8 16
-10 31 -5 34 5 4 2 18 -7 33 -9 15 -10 20 -3 11 8 -8 21 -19 29 -23 25 -12 55
-30 70 -44 63 -54 210 -139 298 -173 65 -25 172 -54 252 -70 30 -6 75 -15 100
-20 154 -31 360 -31 444 1 29 11 30 9 16 -20 -5 -11 -14 -29 -20 -40 -18 -36
-23 -99 -10 -130 11 -27 67 -70 92 -70 7 0 31 -9 55 -21 37 -18 43 -25 43 -52
0 -30 1 -30 16 -11 14 18 15 18 8 -6 -4 -14 -10 -27 -14 -30 -4 -3 -12 -14
-18 -25 -11 -19 -11 -19 -12 5 0 14 -7 33 -14 43 -14 18 -14 18 -20 -1 -4 -11
-2 -38 3 -61 5 -24 5 -41 0 -41 -5 0 -9 5 -9 10 0 22 -16 8 -25 -22 -6 -18
-16 -33 -23 -33 -7 0 -17 -7 -22 -15 -5 -8 -10 -12 -11 -7 -1 4 -3 12 -4 17
-1 6 -3 15 -4 22 -2 24 -21 -8 -24 -42 -2 -20 -8 -34 -15 -33 -17 4 -15 -12 3
-27 8 -7 15 -23 15 -37 0 -13 7 -26 15 -29 8 -4 15 -18 15 -33 -1 -25 -1 -25
-15 -7 -15 20 -15 19 -43 -1 -37 -27 -54 -17 -49 30 5 41 4 42 -25 26 -11 -6
-35 -13 -52 -16 -17 -3 -34 -10 -38 -16 -4 -7 -11 -7 -23 3 -14 12 -14 15 5
35 11 12 20 31 20 43 0 12 5 22 10 22 6 0 10 7 10 16 0 8 5 12 10 9 6 -3 17 0
25 9 24 23 18 28 -15 11 -38 -20 -51 -19 -44 3 5 14 4 15 -5 2 -15 -21 -14
-30 4 -30 11 0 8 -9 -12 -30 -27 -31 -75 -60 -99 -60 -8 0 -10 -8 -6 -22 4
-15 2 -19 -7 -13 -7 4 -10 17 -7 29 3 12 0 40 -6 62 -6 21 -11 45 -9 52 3 21
-19 13 -30 -10 -5 -13 -17 -35 -25 -51 -10 -18 -16 -60 -17 -122 -1 -52 -5
-95 -9 -95 -5 0 -9 5 -9 10 -3 19 -5 25 -18 48 -7 13 -15 21 -18 18 -3 -3 0
-13 8 -23 12 -15 12 -16 -3 -10 -20 7 -23 0 -9 -22 5 -7 13 -11 18 -8 11 7 33
-34 33 -59 0 -8 7 -17 15 -20 21 -9 19 -27 -3 -22 -15 4 -18 -2 -19 -41 -1
-25 1 -53 4 -61 4 -8 7 -19 7 -24 2 -21 26 -16 30 6 3 13 8 37 11 53 3 17 6
41 6 53 -1 13 9 32 21 42 21 17 24 27 27 113 l1 28 28 -19 c15 -10 33 -17 41
-14 8 3 11 0 7 -7 -5 -7 -1 -9 8 -5 9 3 16 2 16 -2 0 -5 14 -15 31 -23 25 -11
30 -18 26 -37 -5 -26 0 -29 23 -14 10 6 11 10 3 10 -7 0 -13 4 -13 9 0 16 43
-2 47 -20 4 -14 9 -16 23 -7 20 13 50 5 50 -14 0 -9 -3 -9 -12 0 -7 7 -19 12
-27 12 -12 0 -13 -2 -4 -8 10 -6 10 -12 -2 -28 -8 -10 -15 -27 -15 -37 0 -29
-20 -9 -20 21 0 21 -2 24 -10 12 -13 -20 -13 -70 0 -71 27 -5 35 -3 35 6 2 26
18 55 31 55 8 0 14 -4 14 -10 0 -5 -4 -10 -10 -10 -14 0 -13 -33 1 -47 14 -14
2 -36 -14 -27 -8 5 -9 4 -2 -4 6 -6 22 -14 37 -17 28 -7 32 4 13 34 -5 10 -4
16 3 19 15 5 16 32 1 32 -5 0 -7 5 -3 11 3 6 15 9 25 6 11 -3 17 -1 13 4 -3 5
4 9 16 9 13 0 19 -4 14 -11 -4 -7 1 -10 11 -7 31 5 28 26 -4 33 -47 10 -34 55
15 55 16 0 24 7 26 23 2 18 10 23 45 25 23 2 51 -1 61 -7 13 -7 22 -7 30 1 25
25 152 7 173 -24 3 -5 17 -4 33 2 41 15 131 13 146 -5 7 -9 25 -13 48 -11 22
2 44 -2 54 -11 15 -14 36 -21 67 -22 9 -1 11 -9 7 -26 -6 -25 3 -31 42 -26 6
1 12 -7 12 -18 0 -24 -45 -61 -73 -61 -35 0 -14 -8 36 -14 43 -5 64 5 35 17
-14 6 14 10 52 8 24 -2 24 -1 6 14 -19 14 -11 21 18 16 19 -4 54 22 49 35 -4
10 4 14 27 14 44 0 66 -25 69 -77 1 -7 4 -13 9 -13 4 0 6 18 4 40 -3 25 0 40
7 40 6 0 11 -15 12 -32 l1 -33 12 29 c17 37 27 20 16 -27 -4 -21 -6 -47 -3
-60 4 -20 3 -20 -9 -6 -11 14 -17 15 -30 5 -15 -11 -16 -18 -4 -62 15 -58 36
-94 53 -94 7 0 13 -4 13 -10 0 -5 -10 -10 -22 -10 -21 0 -20 -1 8 -31 16 -16
29 -35 30 -42 0 -7 2 -21 3 -32 1 -17 3 -18 12 -5 8 11 9 7 5 -17 -6 -39 11
-55 20 -18 7 27 24 34 24 10 0 -8 3 -15 8 -15 4 0 13 -12 19 -27 10 -20 10
-30 1 -40 -8 -10 -8 -13 0 -11 6 2 18 -6 26 -17 14 -18 15 -18 16 -2 0 9 5 17
10 17 6 0 10 5 10 11 0 6 -7 8 -16 5 -10 -4 -14 -2 -11 6 2 7 -2 20 -10 29
-12 15 -11 16 10 12 20 -4 25 0 29 21 4 20 1 26 -13 26 -11 0 -19 -5 -19 -10
0 -7 -6 -7 -20 0 -11 6 -20 17 -20 25 0 8 -9 15 -19 15 -23 0 -36 16 -21 25 5
3 10 11 10 17 0 7 -6 6 -15 -2 -19 -16 -20 -6 0 13 13 14 13 19 0 51 -12 28
-12 36 -3 36 10 0 10 2 0 9 -8 5 -11 17 -7 33 4 16 0 37 -12 59 -13 23 -17 42
-12 59 6 22 14 10 9 -15 -1 -5 2 -7 6 -3 4 4 13 3 20 -3 25 -21 28 37 4 76
-12 19 -17 35 -12 35 5 0 12 -7 16 -15 9 -26 27 -17 20 10 -4 15 -2 25 5 25 6
0 11 -6 12 -12 0 -10 2 -10 6 0 4 10 8 10 19 1 31 -25 13 15 -18 43 -30 27
-31 29 -10 24 22 -4 23 -3 8 13 -9 10 -16 25 -16 35 0 26 -19 56 -36 56 -8 0
-17 7 -20 15 -10 24 -21 17 -26 -15 -3 -20 0 -30 9 -30 7 0 13 5 13 10 0 6 4
10 9 10 6 0 5 -15 -1 -37 -9 -31 -7 -39 9 -51 12 -10 13 -13 3 -10 -8 2 -23
19 -32 37 -9 19 -30 42 -47 52 -33 20 -41 32 -16 23 19 -8 20 13 1 32 -19 18
-30 18 -22 -1 3 -9 0 -15 -10 -15 -8 0 -18 -10 -23 -22 -6 -18 -3 -30 16 -52
16 -19 21 -32 14 -39 -5 -5 -7 -16 -4 -23 3 -8 0 -14 -6 -14 -6 0 -11 7 -11
15 0 8 -4 15 -10 15 -5 0 -10 4 -10 10 0 5 7 7 15 4 8 -4 15 -1 15 4 0 11 -27
42 -37 42 -4 0 -3 -3 0 -6 11 -11 -34 -65 -51 -62 -23 4 -33 19 -26 41 6 18 5
18 -22 0 -16 -10 -25 -12 -21 -5 6 8 1 12 -13 12 -17 0 -19 4 -14 28 l7 27
-27 -24 c-14 -14 -29 -21 -33 -18 -3 4 -1 7 6 7 9 0 11 8 7 25 -5 18 0 34 16
55 24 33 48 39 48 13 0 -9 3 -13 7 -10 3 4 12 -1 20 -11 8 -9 12 -11 8 -4 -3
6 -1 12 4 12 6 0 11 -9 11 -19 0 -11 5 -23 11 -26 7 -5 9 4 5 28 -4 24 -1 39
9 47 11 9 15 9 15 1 0 -6 5 -11 11 -11 7 0 8 11 4 30 l-6 30 27 -15 c35 -18
46 -10 16 11 -12 8 -22 24 -22 34 0 10 -3 27 -7 37 -6 15 -8 14 -13 -10 l-5
-27 -39 34 c-25 23 -36 40 -33 51 4 8 2 15 -2 15 -15 0 -61 89 -49 96 11 7 -8
24 -27 24 -5 0 -3 -5 5 -10 12 -8 13 -12 1 -19 -10 -7 -5 -20 23 -61 20 -29
33 -57 30 -62 -4 -6 0 -14 7 -19 7 -4 11 -11 7 -14 -13 -13 -60 41 -63 73 -2
30 -15 59 -15 35 0 -13 -37 -24 -56 -16 -8 3 -14 11 -14 18 0 7 -6 15 -14 18
-18 7 -10 -27 10 -44 8 -6 14 -16 14 -22 0 -6 -7 -1 -16 11 -20 29 -32 28 -40
-3 -4 -16 -13 -25 -26 -25 -17 0 -19 5 -13 30 5 25 4 29 -9 24 -18 -7 -23 21
-5 32 8 5 8 9 -1 14 -16 10 17 29 54 32 15 1 26 6 26 10 0 19 81 28 144 17 59
-11 66 -10 92 8 16 11 39 24 52 27 35 11 26 22 -29 34 -36 9 -63 9 -92 2 -25
-6 -54 -7 -72 -2 -22 6 -38 4 -60 -8 -56 -31 -215 -36 -215 -6 -1 14 -47 59
-77 75 -13 6 -23 18 -23 25 0 28 -50 34 -92 12 -22 -12 -34 -12 -60 -3 -18 7
-35 14 -38 17 -5 5 -10 6 -57 9 -20 1 -24 4 -14 10 11 7 10 11 -6 20 -11 5
-23 7 -27 4 -3 -3 -6 1 -6 10 0 9 -7 17 -15 17 -10 0 -15 10 -15 30 0 23 4 30
20 30 11 0 20 5 20 11 0 5 -4 8 -9 5 -5 -3 -12 2 -16 11 -3 10 -1 19 4 21 6 2
11 10 11 18 0 10 5 12 13 8 9 -6 9 -5 0 8 -7 8 -9 18 -5 22 4 4 7 13 7 18 0 6
7 13 15 15 13 4 13 3 0 -6 -13 -9 -13 -11 1 -11 9 0 20 7 23 16 3 9 12 14 19
11 6 -2 17 3 24 12 9 11 12 12 13 3 0 -7 5 -10 10 -7 6 4 8 10 5 15 -3 5 4 12
16 15 15 5 20 13 17 30 -4 17 9 41 45 87 64 82 147 208 182 278 53 105 73 130
103 130 15 0 34 -6 43 -13z m-1995 -224 c-10 -10 -19 5 -10 18 6 11 8 11 12 0
2 -7 1 -15 -2 -18z m-76 -23 c0 -5 -2 -10 -4 -10 -3 0 -8 5 -11 10 -3 6 -1 10
4 10 6 0 11 -4 11 -10z m167 -64 c-3 -7 1 -23 9 -35 8 -12 12 -26 9 -32 -4 -5
-9 -36 -12 -67 -2 -31 -10 -60 -16 -64 -20 -13 -27 30 -11 73 8 25 12 56 8 76
-6 33 -1 63 12 63 3 0 4 -6 1 -14z m773 -152 c0 -2 -9 0 -20 6 -11 6 -20 13
-20 16 0 2 9 0 20 -6 11 -6 20 -13 20 -16z m36 7 c-3 -5 1 -14 9 -21 10 -9 15
-9 15 -1 0 6 5 11 11 11 5 0 7 -4 4 -10 -10 -16 21 -12 35 5 14 17 30 20 30 5
0 -5 -7 -10 -15 -10 -8 0 -15 -5 -15 -11 0 -7 11 -8 29 -4 17 3 32 2 36 -5 3
-5 11 -8 16 -4 5 3 16 1 23 -5 7 -6 22 -8 31 -4 13 4 16 3 11 -6 -6 -10 42
-10 101 0 4 1 24 0 43 -1 33 -2 33 -3 10 -10 -63 -20 -235 -7 -335 25 -20 7
-20 6 -1 -9 19 -15 19 -16 -8 -16 -15 0 -40 10 -54 22 -18 14 -21 19 -8 14 14
-5 17 -3 12 10 -7 18 0 34 15 34 6 0 8 -4 5 -9z m694 -35 c0 -2 -8 -10 -17
-17 -16 -13 -17 -12 -4 4 13 16 21 21 21 13z m1702 -58 c-7 -7 -12 -8 -12 -2
0 14 12 26 19 19 2 -3 -1 -11 -7 -17z m-3404 -85 l-12 -28 -4 28 c-2 16 -1 36
3 45 6 16 7 16 16 0 6 -11 5 -26 -3 -45z m3147 17 c-3 -5 -10 -10 -16 -10 -5
0 -9 5 -9 10 0 6 7 10 16 10 8 0 12 -4 9 -10z m-507 -16 c9 -4 28 -8 42 -10
14 -1 36 -6 49 -10 15 -4 22 -3 18 2 -8 13 31 10 66 -4 16 -7 33 -10 38 -6 5
3 9 0 9 -6 0 -7 7 -9 16 -6 9 4 26 4 37 0 16 -5 17 -8 6 -15 -20 -12 -118 -11
-181 2 -49 11 -148 53 -148 64 0 4 13 1 48 -11z m542 -3 c0 -12 -8 -16 -44
-25 l-30 -7 25 20 c26 22 49 27 49 12z m-3196 -108 c-8 -12 -14 -36 -14 -53 0
-18 -4 -29 -10 -25 -5 3 -10 21 -10 40 0 19 5 37 10 40 6 3 10 21 10 38 l1 32
14 -25 c12 -21 12 -28 -1 -47z m2983 61 c-3 -3 -12 -4 -19 -1 -8 3 -5 6 6 6
11 1 17 -2 13 -5z m-2927 -104 c0 -5 -5 -10 -11 -10 -5 0 -7 5 -4 10 3 6 8 10
11 10 2 0 4 -4 4 -10z m-30 -70 c0 -5 -4 -10 -10 -10 -5 0 -10 5 -10 10 0 6 5
10 10 10 6 0 10 -4 10 -10z m3337 -82 c-3 -8 -6 -5 -6 6 -1 11 2 17 5 13 3 -3
4 -12 1 -19z m-3237 8 c0 -14 -21 -58 -26 -54 -8 8 7 58 17 58 5 0 9 -2 9 -4z
m1570 -66 c0 -5 -2 -10 -4 -10 -3 0 -8 5 -11 10 -3 6 -1 10 4 10 6 0 11 -4 11
-10z m65 -59 c-3 -11 -12 -21 -20 -21 -7 0 -16 -6 -18 -12 -3 -7 -6 6 -6 29
-1 44 14 60 38 38 8 -8 10 -21 6 -34z m-55 23 c0 -9 -9 -18 -20 -21 -11 -3
-20 -12 -20 -21 0 -8 -3 -13 -6 -9 -9 9 6 48 17 42 5 -4 9 1 9 9 0 9 5 16 10
16 6 0 10 -7 10 -16z m370 -43 c0 -6 -4 -12 -9 -16 -12 -7 -11 -64 1 -71 4 -3
8 -10 8 -16 0 -6 -9 -3 -19 6 -11 10 -17 24 -15 31 3 7 -2 15 -10 18 -13 5
-13 1 -1 -34 13 -35 12 -39 -2 -39 -11 0 -14 -6 -9 -22 3 -13 6 -29 6 -36 0
-8 5 -10 12 -6 7 5 9 2 5 -9 -4 -11 -2 -14 9 -10 7 3 14 1 14 -5 0 -12 69 -46
78 -38 3 4 -7 19 -21 34 -15 16 -27 36 -27 46 0 14 7 11 33 -13 27 -26 32 -38
32 -76 0 -25 -2 -45 -4 -45 -3 0 -15 10 -28 22 l-23 21 0 -34 c0 -19 5 -40 12
-47 6 -6 9 -14 6 -18 -10 -9 -78 -12 -84 -3 -3 5 -25 7 -50 5 -24 -3 -44 0
-44 5 0 5 -16 9 -35 9 -23 0 -38 6 -42 16 -3 8 -12 13 -19 10 -8 -3 -14 -1
-14 4 0 6 -5 10 -11 10 -5 0 -8 -4 -4 -9 3 -5 1 -12 -4 -15 -11 -7 -73 23 -67
32 2 4 -15 6 -37 6 -42 -2 -117 28 -117 46 0 18 23 23 32 6 5 -9 21 -16 36
-16 16 0 33 -5 38 -10 6 -6 35 -13 64 -15 45 -4 51 -3 40 10 -7 8 -26 15 -42
15 -34 0 -72 26 -76 52 -2 13 2 16 14 11 9 -3 19 -1 23 6 8 13 41 5 41 -10 0
-5 7 -9 15 -9 8 0 15 -5 15 -10 0 -6 6 -10 13 -9 24 4 66 -13 71 -29 3 -10 3
2 0 26 -4 27 -2 42 5 42 8 0 9 6 1 19 -7 14 -7 22 0 26 6 4 8 10 5 15 -3 4 -1
19 4 32 8 18 9 13 9 -29 0 -31 5 -60 13 -70 11 -13 11 -17 2 -20 -7 -3 -13 -9
-13 -15 0 -10 40 -47 52 -48 7 0 4 57 -4 65 -3 4 -2 19 2 35 6 21 3 38 -11 64
-24 45 -24 49 1 41 11 -4 20 -2 20 4 0 6 -4 11 -10 11 -5 0 -10 5 -10 11 0 6
7 9 15 5 8 -3 14 0 12 6 -1 6 14 16 33 23 42 16 70 18 70 6z m-172 -23 c10
-10 15 -10 22 2 5 8 10 11 10 5 0 -19 -21 -41 -26 -28 -3 7 -12 9 -20 6 -8 -3
-14 1 -14 11 0 19 11 21 28 4z m-197 -65 c-10 -17 -10 -16 -11 3 0 23 13 41
18 25 2 -6 -1 -18 -7 -28z m99 -13 c1 -19 35 -60 49 -60 6 0 11 -8 11 -17 0
-11 -3 -14 -8 -7 -4 6 -15 13 -24 17 -23 8 -44 44 -53 87 -7 33 -6 34 9 15 8
-11 16 -27 16 -35z m365 -1 c-4 -13 -1 -19 9 -19 25 0 19 -19 -8 -26 -25 -6
-66 10 -66 26 0 16 20 12 26 -5 4 -8 13 -15 21 -15 11 0 13 5 8 18 -4 9 -10
28 -13 42 -5 22 -4 24 12 11 10 -8 14 -21 11 -32z m-485 9 c0 -6 10 -19 21
-29 22 -19 20 -50 -3 -48 -10 0 -10 2 0 6 6 2 12 9 12 15 0 6 -7 8 -15 4 -8
-3 -19 3 -25 14 -13 24 -13 63 0 55 6 -3 10 -11 10 -17z m540 12 c0 -5 -4 -10
-10 -10 -5 0 -10 5 -10 10 0 6 5 10 10 10 6 0 10 -4 10 -10z m-586 -66 c9 -22
8 -24 -9 -24 -8 0 -15 9 -15 20 0 24 15 27 24 4z m656 -38 c0 -6 -7 -1 -15 10
-8 10 -14 26 -14 34 0 16 28 -28 29 -44z m-830 35 c0 -6 -4 -13 -10 -16 -5 -3
-10 1 -10 9 0 9 5 16 10 16 6 0 10 -4 10 -9z m777 -23 c-3 -8 -6 -5 -6 6 -1
11 2 17 5 13 3 -3 4 -12 1 -19z m123 2 c0 -5 -4 -10 -10 -10 -5 0 -10 5 -10
10 0 6 5 10 10 10 6 0 10 -4 10 -10z m-760 -42 c0 -5 -4 -8 -10 -8 -5 0 -10
10 -10 23 0 18 2 19 10 7 5 -8 10 -18 10 -22z m70 0 c0 -2 -8 -4 -19 -4 -12 0
-17 6 -13 18 3 15 6 15 18 3 8 -7 14 -15 14 -17z m730 17 c0 -8 -2 -15 -4 -15
-2 0 -6 7 -10 15 -3 8 -1 15 4 15 6 0 10 -7 10 -15z m-2146 -43 c-15 -31 -34
-51 -34 -35 0 13 41 76 46 71 2 -3 -3 -19 -12 -36z m1312 -15 c8 -11 13 -21
10 -24 -8 -9 -38 6 -32 16 3 5 -1 14 -9 21 -8 7 -15 20 -15 29 1 13 3 13 16
-4 8 -11 21 -28 30 -38z m694 9 c-5 -5 -10 -17 -10 -26 0 -21 -43 -67 -48 -52
-2 7 -9 9 -15 5 -7 -4 -6 1 2 10 9 11 10 17 2 17 -6 0 -11 7 -11 15 0 8 5 15
10 15 6 0 15 10 20 23 8 21 9 21 9 2 1 -12 -4 -26 -11 -33 -7 -7 -9 -12 -4
-12 17 0 36 30 36 57 1 27 1 27 15 9 10 -13 12 -23 5 -30z m50 14 c0 -5 -2
-10 -4 -10 -3 0 -8 5 -11 10 -3 6 -1 10 4 10 6 0 11 -4 11 -10z m996 -27 c-10
-10 -19 5 -10 18 6 11 8 11 12 0 2 -7 1 -15 -2 -18z m-1981 7 c3 -5 1 -10 -4
-10 -6 0 -11 5 -11 10 0 6 2 10 4 10 3 0 8 -4 11 -10z m2305 -22 c48 -15 53
-41 15 -77 -14 -13 -25 -34 -25 -46 0 -33 -16 -39 -37 -16 -33 37 -43 50 -43
61 0 6 -7 13 -16 17 -15 5 -15 7 0 15 9 5 16 17 16 27 0 34 24 39 90 19z
m-338 -58 c3 -18 0 -30 -7 -30 -6 0 -12 14 -13 30 -1 17 2 30 7 30 5 0 11 -13
13 -30z m1464 -4 c13 -9 33 -35 45 -59 32 -63 48 -77 87 -77 18 0 50 -7 69
-17 29 -13 41 -14 67 -5 43 16 57 15 83 -7 32 -26 80 -111 86 -151 4 -31 2
-37 -21 -48 -31 -15 -86 -16 -77 -2 4 6 -9 10 -33 10 -35 0 -41 -4 -52 -30 -9
-22 -10 -37 -3 -53 11 -25 -1 -64 -27 -84 -34 -27 -92 -4 -125 50 -5 8 -31 46
-56 84 -51 75 -75 129 -71 155 4 20 -17 30 -100 49 l-58 12 0 43 c0 24 -4 46
-10 49 -15 10 -11 38 9 62 34 41 137 51 187 19z m-2243 -47 c3 -10 1 -19 -4
-19 -5 0 -9 7 -9 15 0 9 -7 18 -15 21 -8 4 -15 13 -15 22 0 13 3 13 19 -2 10
-10 21 -26 24 -37z m-1053 -8 c0 -10 -30 -24 -37 -17 -3 3 -2 9 2 15 8 13 35
15 35 2z m-4478 -29 c44 -38 81 -49 150 -45 32 2 59 -1 63 -7 3 -5 14 -10 24
-10 9 0 37 -10 62 -22 24 -12 50 -21 58 -19 7 1 10 -2 7 -7 -3 -6 2 -8 12 -5
30 7 72 -50 72 -97 0 -58 -26 -94 -89 -124 -59 -27 -72 -31 -70 -18 4 21 -3
31 -28 41 -35 13 -284 34 -317 25 -21 -5 -26 -2 -32 22 -4 16 -18 37 -31 47
-13 10 -23 26 -23 36 0 9 -5 22 -12 29 -17 17 17 117 51 155 32 35 62 34 103
-1z m3138 -3 c0 -6 -4 -7 -10 -4 -5 3 -10 11 -10 16 0 6 5 7 10 4 6 -3 10 -11
10 -16z m2208 4 c-10 -2 -26 -2 -35 0 -10 3 -2 5 17 5 19 0 27 -2 18 -5z m203
-23 l24 -21 -32 16 c-32 15 -42 25 -24 25 5 0 19 -9 32 -20z m-2275 -27 c-11
-11 -19 6 -11 24 8 17 8 17 12 0 3 -10 2 -21 -1 -24z m32 2 c-3 -3 -9 2 -12
12 -6 14 -5 15 5 6 7 -7 10 -15 7 -18z m2302 -5 c0 -5 -7 -7 -15 -4 -8 4 -12
10 -9 15 6 11 24 2 24 -11z m672 -3 c3 -13 2 -32 -2 -42 -6 -17 -7 -17 -13 -1
-10 25 -9 66 2 66 5 0 11 -10 13 -23z m-728 -2 c11 -8 18 -17 15 -19 -7 -7
-49 13 -49 24 0 14 11 12 34 -5z m-1089 -5 c4 -7 -3 -8 -22 -4 -38 9 -42 14
-10 14 14 0 29 -5 32 -10z m1125 -71 c0 -6 -4 -7 -10 -4 -5 3 -10 11 -10 16 0
6 5 7 10 4 6 -3 10 -11 10 -16z m631 -62 c-8 -8 -11 -4 -11 14 0 33 14 47 18
19 2 -12 -1 -27 -7 -33z m435 5 c17 -47 6 -58 -40 -41 -30 11 -35 17 -31 37 5
27 3 25 30 40 24 13 25 12 41 -36z m-1091 -61 c3 -5 1 -12 -5 -16 -5 -3 -10 1
-10 9 0 18 6 21 15 7z m36 -28 c-12 -20 -14 -14 -5 12 4 9 9 14 11 11 3 -2 0
-13 -6 -23z m1558 -40 c22 -16 40 -34 41 -40 1 -30 -113 -61 -142 -39 -32 24
-38 59 -14 82 29 30 69 29 115 -3z m-3523 -28 c20 -19 5 -19 -20 0 -11 9 -14
15 -7 15 7 0 19 -7 27 -15z m-39 -29 c-3 -8 1 -22 8 -33 19 -24 19 -44 -1 -36
-8 3 -13 11 -10 18 3 8 -1 16 -9 19 -15 5 -9 46 7 46 6 0 8 -6 5 -14z m123 4
c0 -5 -4 -10 -10 -10 -5 0 -10 5 -10 10 0 6 5 10 10 10 6 0 10 -4 10 -10z
m-3779 -42 c7 -27 -4 -38 -37 -38 -20 0 -30 50 -13 61 23 15 42 6 50 -23z
m3799 -26 c0 -12 -3 -12 -15 -2 -8 7 -15 22 -15 34 1 21 1 21 15 2 8 -11 15
-26 15 -34z m2410 24 c0 -3 -4 -8 -10 -11 -5 -3 -10 -1 -10 4 0 6 5 11 10 11
6 0 10 -2 10 -4z m-2601 -28 c-6 -12 -6 -25 1 -37 11 -22 14 -48 3 -37 -7 7
-33 75 -33 88 0 4 9 6 19 5 16 -1 18 -5 10 -19z m-12 -111 c-5 -13 -21 22 -30
68 -5 24 -2 22 14 -13 11 -24 18 -49 16 -55z m166 68 c3 -16 0 -24 -7 -22 -14
4 -21 47 -8 47 5 0 12 -11 15 -25z m2437 4 c0 -5 -9 -9 -20 -9 -11 0 -20 4
-20 8 0 4 9 8 20 9 11 1 20 -2 20 -8z m-3549 -41 c9 -18 20 -46 26 -63 6 -20
15 -29 26 -27 9 2 17 -2 17 -8 0 -6 11 -8 26 -6 17 3 27 0 31 -12 8 -20 44
-71 91 -127 50 -60 52 -63 52 -75 0 -6 7 -13 15 -16 8 -4 15 -13 15 -22 0 -22
68 -82 86 -75 9 3 14 -1 14 -11 0 -23 42 -94 58 -101 8 -3 16 3 19 15 3 12 12
20 22 18 18 -4 63 -83 59 -103 -5 -22 114 -145 139 -145 14 0 23 -6 23 -15 0
-8 12 -22 28 -32 15 -10 33 -26 40 -35 16 -23 35 -13 27 13 -4 11 -2 19 5 19
7 0 10 -14 8 -36 -2 -28 3 -39 22 -54 14 -11 30 -20 36 -20 5 0 15 -5 22 -12
6 -6 28 -13 49 -15 40 -4 73 -27 73 -50 0 -7 7 -13 15 -13 15 0 95 -72 95 -86
0 -10 31 -44 41 -44 4 0 5 10 2 21 -5 19 -3 20 18 14 13 -4 28 -11 34 -16 5
-5 15 -9 23 -9 13 0 63 -33 112 -75 35 -30 173 -85 212 -85 18 0 66 -6 105
-14 96 -18 208 -14 233 9 16 15 33 17 100 13 48 -3 80 -1 80 5 0 5 14 7 32 3
21 -4 37 -1 48 9 10 9 39 17 69 18 28 1 51 5 51 8 0 10 78 32 89 24 7 -4 23 1
37 10 15 9 35 15 45 12 15 -4 19 0 19 19 0 17 6 24 20 24 11 0 20 7 20 15 0 8
7 15 15 15 8 0 15 -5 15 -11 0 -5 11 2 24 16 17 18 26 22 29 13 3 -9 9 -7 20
7 8 11 19 17 23 13 4 -4 14 -3 21 4 11 9 17 9 24 -3 7 -11 9 -11 9 4 0 9 5 17
10 17 6 0 11 -8 11 -17 1 -17 2 -17 6 0 5 20 19 22 26 5 4 -8 6 -7 6 3 1 19
24 31 45 23 24 -9 29 17 7 32 -12 9 -19 20 -15 26 4 6 10 6 17 -1 16 -16 27
-13 21 4 -7 18 0 19 28 4 29 -16 34 -2 7 20 l-24 20 25 -2 c49 -3 58 -23 49
-118 -10 -114 -81 -372 -110 -404 -5 -5 -9 -14 -9 -21 0 -7 -16 -47 -36 -91
-29 -62 -54 -95 -120 -162 -54 -54 -89 -81 -99 -78 -8 4 -17 2 -20 -3 -4 -6
-14 -10 -25 -10 -10 0 -20 -7 -24 -15 -3 -8 -17 -15 -31 -15 -18 0 -25 -5 -25
-18 0 -10 -11 -25 -25 -32 -13 -7 -22 -17 -19 -21 2 -5 -8 -15 -23 -23 -16 -8
-43 -35 -61 -60 -18 -25 -42 -51 -53 -56 -10 -6 -19 -19 -19 -30 0 -10 -6 -23
-13 -27 -8 -4 -16 -16 -20 -26 -8 -22 -22 -22 -47 3 -11 11 -23 20 -26 20 -3
0 -20 11 -36 26 -17 14 -54 37 -82 51 -28 14 -71 42 -96 63 -25 21 -65 48 -90
60 -25 13 -65 40 -90 61 -25 20 -70 54 -101 76 -62 42 -206 150 -228 171 -8 8
-37 31 -65 52 -28 21 -119 98 -202 171 -154 137 -215 191 -364 319 -124 107
-512 498 -616 620 -49 58 -95 111 -102 119 -17 18 -143 187 -165 221 -20 31
-9 86 15 84 9 -1 22 10 29 25 15 27 40 52 49 46 3 -2 12 -18 21 -37z m-197 16
c3 -8 2 -12 -4 -9 -6 3 -10 10 -10 16 0 14 7 11 14 -7z m3716 -4 c0 -5 -5 -10
-11 -10 -5 0 -7 5 -4 10 3 6 8 10 11 10 2 0 4 -4 4 -10z m-79 -38 c-5 -10 -17
-25 -26 -32 -24 -20 -16 10 9 33 24 22 29 22 17 -1z m-34 2 c-3 -3 -12 -4 -19
-1 -8 3 -5 6 6 6 11 1 17 -2 13 -5z m-87 -44 c0 -5 -4 -10 -10 -10 -5 0 -10 5
-10 10 0 6 5 10 10 10 6 0 10 -4 10 -10z m40 0 c0 -5 -4 -10 -10 -10 -5 0 -10
5 -10 10 0 6 5 10 10 10 6 0 10 -4 10 -10z m61 -37 c-8 -15 -10 -15 -11 -2 0
17 10 32 18 25 2 -3 -1 -13 -7 -23z m-1171 -8 c0 -33 -15 -33 -16 0 -1 14 2
25 7 25 5 0 9 -11 9 -25z m1230 -15 c-16 -31 -23 -19 -9 16 6 16 13 24 16 17
2 -7 -1 -22 -7 -33z m-2230 -16 c0 -8 -5 -12 -10 -9 -6 4 -8 11 -5 16 9 14 15
11 15 -7z m1185 -24 c10 -11 13 -20 7 -20 -6 0 -16 9 -22 20 -6 11 -9 20 -7
20 2 0 12 -9 22 -20z m765 -23 c0 -5 -7 -7 -15 -3 -10 3 -15 -1 -15 -11 0 -22
-6 -14 -14 19 -6 27 -5 27 19 16 14 -6 25 -15 25 -21z m-1781 -9 c0 -13 -4
-32 -9 -43 -6 -15 -8 -9 -8 23 0 23 4 42 9 42 5 0 9 -10 8 -22z m1880 -21 c0
-21 -1 -21 -9 -2 -12 28 -12 37 0 30 6 -3 10 -16 9 -28z m-850 -12 c-10 -44
-11 -44 -30 -32 -22 14 -26 39 -4 31 8 -4 15 -1 15 6 0 6 5 10 11 8 6 -2 9 -8
8 -13z m691 -55 c0 -12 -5 -17 -14 -14 -8 3 -12 13 -9 25 6 23 23 15 23 -11z
m-1610 11 c0 -5 -7 -12 -16 -15 -14 -5 -15 -4 -4 9 14 17 20 19 20 6z m886 -2
c3 -6 2 -15 -4 -21 -7 -7 -14 -3 -21 11 -10 17 -9 21 3 21 8 0 18 -5 22 -11z
m116 -100 c5 -13 3 -16 -8 -12 -7 3 -14 13 -14 24 0 10 -9 23 -20 29 -11 6
-20 18 -20 28 0 12 8 7 28 -17 15 -19 30 -43 34 -52z m-108 46 c3 -8 13 -15
21 -15 9 0 14 -4 11 -9 -3 -5 -14 -7 -25 -4 -14 3 -20 -2 -25 -22 -4 -15 -4
-30 -1 -33 3 -3 8 4 12 16 4 17 11 21 24 17 11 -4 19 -2 19 4 0 6 7 11 16 11
14 0 14 -3 4 -15 -10 -13 -9 -15 9 -15 24 0 25 -4 11 -30 -7 -13 -7 -21 0 -25
5 -3 10 -17 10 -30 0 -13 6 -30 13 -37 8 -7 14 -20 14 -28 0 -8 3 -22 5 -30 3
-8 3 -11 0 -6 -2 4 -8 2 -13 -5 -7 -12 -9 -12 -9 0 0 11 -4 9 -14 -5 -9 -11
-12 -30 -9 -46 3 -17 1 -28 -6 -28 -6 0 -11 3 -12 8 -7 77 -15 95 -36 84 -19
-11 -56 27 -66 68 l-6 25 22 -27 c23 -28 52 -32 67 -9 11 19 29 5 23 -17 -3
-12 4 -22 21 -30 30 -13 33 -8 10 15 -8 9 -13 22 -10 29 3 8 -1 14 -9 14 -9 0
-16 10 -16 23 -1 15 -3 17 -6 5 -5 -19 -30 -31 -38 -18 -4 6 -15 10 -26 10
-17 0 -22 14 -18 46 0 4 -4 10 -10 14 -8 5 -7 15 4 36 8 16 15 39 15 52 0 25
15 30 24 7z m590 -10 c3 -8 1 -15 -3 -15 -5 0 -11 7 -15 15 -3 8 -1 15 3 15 5
0 11 -7 15 -15z m74 -10 c-3 -3 -9 2 -12 12 -6 14 -5 15 5 6 7 -7 10 -15 7
-18z m-481 -21 c26 -23 26 -25 6 -19 -20 6 -23 3 -23 -22 0 -16 5 -34 12 -41
9 -9 9 -15 -1 -24 -11 -11 -13 -10 -7 0 4 6 0 19 -9 28 -9 9 -15 26 -14 38 2
34 -1 42 -10 27 -6 -9 -8 -5 -8 13 0 33 18 33 54 0z m518 16 c3 -5 1 -10 -4
-10 -6 0 -11 5 -11 10 0 6 2 10 4 10 3 0 8 -4 11 -10z m-1267 -36 c-10 -10
-28 6 -28 24 0 15 1 15 17 -1 9 -9 14 -19 11 -23z m1208 -12 c-9 -8 -26 10
-26 26 1 15 2 15 15 -2 8 -11 13 -21 11 -24z m-1312 13 c-4 -8 -8 -15 -10 -15
-2 0 -4 7 -4 15 0 8 4 15 10 15 5 0 7 -7 4 -15z m1224 -33 c7 -19 7 -30 2 -27
-6 4 -10 13 -10 21 0 8 -4 14 -10 14 -5 0 -10 10 -10 22 0 28 14 13 28 -30z
m-673 28 c3 -5 1 -10 -4 -10 -6 0 -11 5 -11 10 0 6 2 10 4 10 3 0 8 -4 11 -10z
m-326 -40 c0 -10 -3 -8 -9 5 -12 27 -12 43 0 25 5 -8 9 -22 9 -30z m938 18
c-3 -8 -6 -5 -6 6 -1 11 2 17 5 13 3 -3 4 -12 1 -19z m-1537 -2 c0 -8 -4 -18
-10 -21 -5 -3 -10 3 -10 14 0 12 5 21 10 21 6 0 10 -6 10 -14z m274 -2 c3 -8
2 -12 -4 -9 -6 3 -10 10 -10 16 0 14 7 11 14 -7z m288 -6 c-7 -7 -12 -8 -12
-2 0 6 3 14 7 17 3 4 9 5 12 2 2 -3 -1 -11 -7 -17z m703 13 c3 -5 1 -12 -5
-16 -5 -3 -10 1 -10 9 0 18 6 21 15 7z m-958 -33 c-3 -8 -6 -5 -6 6 -1 11 2
17 5 13 3 -3 4 -12 1 -19z m1103 0 c0 -19 -2 -20 -10 -8 -13 19 -13 30 0 30 6
0 10 -10 10 -22z m110 6 c0 -2 -7 -4 -15 -4 -8 0 -15 4 -15 10 0 5 7 7 15 4 8
-4 15 -8 15 -10z m-1257 -14 c3 -11 1 -23 -4 -26 -5 -3 -9 6 -9 20 0 31 6 34
13 6z m570 -43 c-8 -14 -33 22 -33 47 0 18 3 17 19 -8 11 -17 17 -34 14 -39z
m-336 31 c-3 -8 -6 -5 -6 6 -1 11 2 17 5 13 3 -3 4 -12 1 -19z m665 -3 c6 -14
15 -25 20 -25 4 0 8 -4 8 -10 0 -5 -7 -7 -15 -3 -19 7 -50 63 -35 63 6 0 16
-11 22 -25z m121 18 c-7 -2 -19 -2 -25 0 -7 3 -2 5 12 5 14 0 19 -2 13 -5z
m-713 -44 c0 -10 -4 -19 -9 -19 -5 0 -8 11 -8 25 0 13 3 22 8 19 5 -3 9 -14 9
-25z m689 -7 c-3 -22 11 -52 23 -52 5 0 6 5 3 10 -3 6 -4 10 -1 10 3 0 13 -15
22 -32 16 -31 16 -32 0 -19 -13 11 -19 12 -25 3 -10 -17 -50 64 -44 89 6 22
25 15 22 -9z m286 18 c4 -6 -5 -10 -20 -10 -15 0 -24 4 -20 10 3 6 12 10 20
10 8 0 17 -4 20 -10z m-241 -19 c3 -5 -1 -11 -9 -14 -9 -4 -12 -1 -8 9 6 16
10 17 17 5z m486 -22 c0 -11 -4 -18 -10 -14 -5 3 -7 12 -3 20 7 21 13 19 13
-6z m-438 -14 c3 -13 1 -22 -3 -19 -9 5 -13 44 -5 44 2 0 6 -11 8 -25z m75 3
c-3 -8 -6 -5 -6 6 -1 11 2 17 5 13 3 -3 4 -12 1 -19z m260 -14 c-9 -9 -28 6
-21 18 4 6 10 6 17 -1 6 -6 8 -13 4 -17z m-357 6 c0 -5 -2 -10 -4 -10 -3 0 -8
5 -11 10 -3 6 -1 10 4 10 6 0 11 -4 11 -10z m-530 -16 c0 -14 -3 -14 -15 -4
-8 7 -15 14 -15 16 0 2 7 4 15 4 8 0 15 -7 15 -16z m-166 -17 c6 -9 6 -20 2
-24 -5 -4 -11 -2 -13 5 -3 6 -9 10 -14 6 -5 -3 -9 4 -9 16 0 24 18 23 34 -3z
m387 -24 c18 -5 27 -23 11 -23 -20 0 -51 41 -44 58 6 14 7 13 10 -7 2 -13 12
-26 23 -28z m219 26 c0 -6 -4 -8 -9 -4 -5 3 -12 1 -16 -5 -3 -5 -10 -10 -15
-10 -6 0 -2 9 7 19 16 20 33 19 33 0z m-290 2 c0 -5 14 -23 32 -40 38 -37 22
-42 -21 -5 -30 25 -41 54 -21 54 6 0 10 -4 10 -9z m780 -1 c0 -5 -4 -10 -10
-10 -5 0 -10 5 -10 10 0 6 5 10 10 10 6 0 10 -4 10 -10z m-243 -22 c-3 -8 -6
-5 -6 6 -1 11 2 17 5 13 3 -3 4 -12 1 -19z m-793 -24 c5 -14 4 -15 -9 -4 -17
14 -19 20 -6 20 5 0 12 -7 15 -16z m495 2 c8 -9 8 -16 2 -20 -5 -4 -13 -2 -16
4 -4 6 -14 1 -25 -12 -11 -13 -19 -17 -20 -10 0 6 5 12 10 12 6 0 10 9 10 20
0 23 22 26 39 6z m-410 -41 c13 -30 13 -30 -8 -11 -12 11 -21 28 -21 40 0 24
11 13 29 -29z m-37 6 c2 -17 1 -28 -4 -25 -8 5 -12 54 -4 54 2 0 6 -13 8 -29z
m685 -13 c-3 -8 -6 -5 -6 6 -1 11 2 17 5 13 3 -3 4 -12 1 -19z m-467 -9 c0
-11 -4 -17 -10 -14 -5 3 -10 13 -10 21 0 8 5 14 10 14 6 0 10 -9 10 -21z m240
-11 c0 -6 -7 -5 -15 2 -8 7 -15 17 -15 22 0 6 7 5 15 -2 8 -7 15 -17 15 -22z
m279 -11 c1 -5 -3 -5 -9 -2 -5 3 -10 16 -9 28 0 21 1 21 9 2 5 -11 9 -24 9
-28z m141 24 c0 -5 -7 -11 -15 -15 -15 -5 -20 5 -8 17 9 10 23 9 23 -2z m-770
-50 c0 -21 -16 -2 -25 29 -7 24 -7 24 9 5 8 -11 16 -27 16 -34z m170 27 c0 -6
8 -21 17 -32 13 -15 10 -14 -10 3 -28 25 -35 41 -17 41 6 0 10 -5 10 -12z
m-10 -54 c0 -8 5 -14 11 -14 5 0 7 -4 4 -10 -11 -18 -20 -11 -31 25 -9 29 -9
33 2 24 8 -6 14 -18 14 -25z m-282 -9 c-1 -36 -18 -50 -18 -16 0 20 10 51 16
51 2 0 3 -16 2 -35z m62 -10 c0 -5 -5 -3 -10 5 -5 8 -10 20 -10 25 0 6 5 3 10
-5 5 -8 10 -19 10 -25z m811 13 c11 -21 11 -22 -4 -9 -10 7 -17 17 -17 22 0
15 9 10 21 -13z m-491 -8 c0 -5 -2 -10 -4 -10 -3 0 -8 5 -11 10 -3 6 -1 10 4
10 6 0 11 -4 11 -10z m-124 -36 c22 -54 12 -61 -13 -9 -12 25 -17 45 -12 45 6
0 17 -16 25 -36z m-226 16 c0 -5 -2 -10 -4 -10 -3 0 -8 5 -11 10 -3 6 -1 10 4
10 6 0 11 -4 11 -10z m500 0 c0 -5 -2 -10 -4 -10 -3 0 -8 5 -11 10 -3 6 -1 10
4 10 6 0 11 -4 11 -10z m-346 -26 c3 -8 2 -12 -4 -9 -6 3 -10 10 -10 16 0 14
7 11 14 -7z m366 -34 c0 -5 -5 -10 -11 -10 -5 0 -7 5 -4 10 3 6 8 10 11 10 2
0 4 -4 4 -10z m220 -60 c0 -5 -5 -10 -11 -10 -5 0 -7 5 -4 10 3 6 8 10 11 10
2 0 4 -4 4 -10z m50 -11 c0 -5 -4 -9 -10 -9 -5 0 -10 7 -10 16 0 8 5 12 10 9
6 -3 10 -10 10 -16z m-605 -289 c3 -5 -1 -10 -10 -10 -9 0 -13 5 -10 10 3 6 8
10 10 10 2 0 7 -4 10 -10z m305 -814 c0 -3 -4 -8 -10 -11 -5 -3 -10 -1 -10 4
0 6 5 11 10 11 6 0 10 -2 10 -4z m-352 -598 c-15 -44 -28 -58 -28 -28 0 19 24
60 36 60 2 0 -2 -15 -8 -32z m52 -8 c0 -5 -5 -10 -11 -10 -5 0 -7 5 -4 10 3 6
8 10 11 10 2 0 4 -4 4 -10z m156 -108 c-24 -25 -29 -8 -10 34 l18 39 4 -29 c2
-17 -3 -35 -12 -44z"/>
<path d="M4265 7210 c3 -5 10 -10 16 -10 5 0 9 5 9 10 0 6 -7 10 -16 10 -8 0
-12 -4 -9 -10z"/>
<path d="M4305 7160 c3 -5 8 -10 11 -10 2 0 4 5 4 10 0 6 -5 10 -11 10 -5 0
-7 -4 -4 -10z"/>
<path d="M5240 7110 c-9 -6 -10 -10 -3 -10 6 0 15 5 18 10 8 12 4 12 -15 0z"/>
<path d="M4075 7069 c-10 -15 3 -25 16 -12 7 7 7 13 1 17 -6 3 -14 1 -17 -5z"/>
<path d="M5430 7069 c0 -5 5 -7 10 -4 6 3 10 8 10 11 0 2 -4 4 -10 4 -5 0 -10
-5 -10 -11z"/>
<path d="M5405 7040 c-3 -5 -1 -10 4 -10 6 0 11 5 11 10 0 6 -2 10 -4 10 -3 0
-8 -4 -11 -10z"/>
<path d="M4046 7026 c3 -8 12 -17 20 -20 12 -4 12 -2 4 14 -12 23 -32 27 -24
6z"/>
<path d="M4120 7020 c12 -12 25 -20 30 -18 15 5 -3 25 -28 33 l-24 7 22 -22z"/>
<path d="M5408 7011 c-16 -14 -28 -33 -28 -41 0 -9 7 -5 17 10 9 14 24 30 33
37 8 6 13 13 10 16 -3 2 -17 -7 -32 -22z"/>
<path d="M5526 7025 c-11 -8 -16 -15 -10 -15 5 0 18 7 28 15 11 8 16 15 10 15
-5 0 -18 -7 -28 -15z"/>
<path d="M4058 6950 c-15 -16 -23 -32 -18 -35 14 -8 30 3 30 21 0 8 5 14 11
14 5 0 8 4 4 9 -3 5 5 12 17 14 20 4 20 4 3 5 -11 1 -32 -12 -47 -28z"/>
<path d="M3941 6944 c-12 -14 -21 -27 -20 -29 9 -8 70 26 67 37 -7 20 -22 18
-47 -8z"/>
<path d="M5563 6963 c-17 -6 -16 -23 1 -23 8 0 16 7 20 15 6 15 1 17 -21 8z"/>
<path d="M5998 6915 c-24 -33 -23 -43 2 -15 11 13 20 27 20 32 0 12 -3 10 -22
-17z"/>
<path d="M5405 6920 c-3 -5 -2 -10 4 -10 5 0 13 5 16 10 3 6 2 10 -4 10 -5 0
-13 -4 -16 -10z"/>
<path d="M3960 6880 c0 -5 5 -10 10 -10 6 0 10 5 10 10 0 6 -4 10 -10 10 -5 0
-10 -4 -10 -10z"/>
<path d="M5425 6880 c-3 -5 -2 -10 4 -10 5 0 13 5 16 10 3 6 2 10 -4 10 -5 0
-13 -4 -16 -10z"/>
<path d="M5480 6881 c0 -5 -3 -17 -7 -27 -6 -16 -4 -16 20 2 32 23 34 34 7 34
-11 0 -20 -4 -20 -9z"/>
<path d="M3997 6833 c-4 -3 -7 -11 -7 -17 0 -6 5 -5 12 2 6 6 9 14 7 17 -3 3
-9 2 -12 -2z"/>
<path d="M5760 6800 c-19 -11 -29 -19 -22 -20 14 0 72 28 72 35 0 9 -15 4 -50
-15z"/>
<path d="M3818 6793 c7 -3 16 -2 19 1 4 3 -2 6 -13 5 -11 0 -14 -3 -6 -6z"/>
<path d="M3867 6743 c-2 -5 -7 -21 -11 -38 -6 -24 -5 -27 5 -18 7 7 13 24 14
38 1 26 -1 30 -8 18z"/>
<path d="M3950 6619 c0 -5 5 -7 10 -4 6 3 10 8 10 11 0 2 -4 4 -10 4 -5 0 -10
-5 -10 -11z"/>
<path d="M3725 6409 c-4 -6 -5 -13 -2 -16 7 -7 27 6 27 18 0 12 -17 12 -25 -2z"/>
<path d="M3761 6134 c0 -11 3 -14 6 -6 3 7 2 16 -1 19 -3 4 -6 -2 -5 -13z"/>
<path d="M3697 6134 c-4 -4 -7 -17 -7 -28 1 -19 1 -20 11 -3 11 19 8 43 -4 31z"/>
<path d="M3663 6072 c-6 -4 -15 -20 -18 -35 -5 -18 -12 -26 -21 -23 -7 3 -16
1 -19 -4 -4 -6 9 -10 29 -10 20 0 36 3 37 8 3 16 7 72 5 72 0 0 -6 -4 -13 -8z"/>
<path d="M4933 5763 c9 -2 25 -2 35 0 9 3 1 5 -18 5 -19 0 -27 -2 -17 -5z"/>
<path d="M5003 5753 c9 -2 25 -2 35 0 9 3 1 5 -18 5 -19 0 -27 -2 -17 -5z"/>
<path d="M4870 4520 c0 -5 7 -10 15 -10 8 0 15 5 15 10 0 6 -7 10 -15 10 -8 0
-15 -4 -15 -10z"/>
<path d="M5020 4440 c0 -5 5 -10 10 -10 6 0 10 5 10 10 0 6 -4 10 -10 10 -5 0
-10 -4 -10 -10z"/>
<path d="M6536 4315 c-6 -17 2 -45 14 -45 4 0 10 8 12 18 9 34 -13 59 -26 27z"/>
<path d="M4785 4130 c-3 -5 -1 -10 4 -10 6 0 11 5 11 10 0 6 -2 10 -4 10 -3 0
-8 -4 -11 -10z"/>
<path d="M3472 4035 c-30 -35 -27 -40 8 -15 17 12 30 26 30 31 0 16 -16 10
-38 -16z"/>
<path d="M5412 4033 c2 -10 10 -18 18 -18 22 0 18 29 -3 33 -14 3 -18 -1 -15
-15z"/>
<path d="M5830 4025 c0 -8 7 -15 16 -15 14 0 14 3 4 15 -7 8 -14 15 -16 15 -2
0 -4 -7 -4 -15z"/>
<path d="M4661 4003 c0 -4 4 -17 9 -28 8 -19 9 -19 9 2 1 12 -3 25 -9 28 -5 3
-10 3 -9 -2z"/>
<path d="M4375 3960 c-8 -13 14 -42 25 -35 10 6 1 45 -11 45 -4 0 -11 -5 -14
-10z"/>
<path d="M5601 3944 c0 -11 3 -14 6 -6 3 7 2 16 -1 19 -3 4 -6 -2 -5 -13z"/>
<path d="M4315 3920 c-4 -8 -1 -16 4 -18 6 -2 11 -11 11 -20 1 -13 4 -11 13 6
7 12 16 19 20 16 11 -11 8 -44 -3 -44 -5 0 -10 -7 -10 -16 0 -12 6 -11 32 8
27 18 29 23 15 26 -10 2 -20 15 -23 30 -4 20 -11 27 -30 27 -13 0 -26 -7 -29
-15z"/>
<path d="M4395 3909 c-4 -6 -5 -13 -2 -16 7 -7 27 6 27 18 0 12 -17 12 -25 -2z"/>
<path d="M4497 3902 c-10 -10 -17 -22 -17 -25 0 -11 39 16 44 30 8 19 -8 16
-27 -5z"/>
<path d="M4527 3867 c-3 -8 -2 -19 3 -26 5 -10 9 -8 14 4 3 9 6 21 6 26 0 14
-17 11 -23 -4z"/>
<path d="M4604 3859 c-3 -6 -1 -16 5 -22 8 -8 11 -5 11 11 0 24 -5 28 -16 11z"/>
<path d="M4457 3836 c-6 -16 2 -28 14 -20 12 7 11 34 0 34 -5 0 -11 -6 -14
-14z"/>
<path d="M5807 3761 c-3 -11 1 -22 9 -25 9 -4 13 1 11 14 -5 28 -14 34 -20 11z"/>
<path d="M5660 3759 c0 -5 5 -7 10 -4 6 3 10 8 10 11 0 2 -4 4 -10 4 -5 0 -10
-5 -10 -11z"/>
<path d="M5897 3664 c-4 -4 -7 -14 -7 -23 0 -11 3 -12 11 -4 6 6 10 16 7 23
-2 6 -7 8 -11 4z"/>
<path d="M4762 3588 c2 -5 7 -9 11 -9 4 1 23 1 42 1 19 0 35 4 35 9 0 5 -20 9
-46 9 -25 0 -44 -4 -42 -10z"/>
<path d="M4285 3571 c-3 -5 -1 -12 5 -16 5 -3 10 1 10 9 0 18 -6 21 -15 7z"/>
<path d="M5040 3558 c0 -10 -6 -18 -12 -19 -7 0 -2 -5 11 -10 30 -12 31 -10
14 21 -9 19 -13 20 -13 8z"/>
<path d="M3620 3539 c0 -5 5 -7 10 -4 6 3 10 8 10 11 0 2 -4 4 -10 4 -5 0 -10
-5 -10 -11z"/>
<path d="M4740 3520 c-7 -16 -17 -27 -23 -23 -6 4 -8 -3 -4 -18 8 -30 -5 -52
-26 -47 -9 2 -17 -1 -19 -7 -2 -5 9 -11 25 -13 15 -2 27 -8 27 -13 0 -5 6 -9
14 -9 13 0 13 4 1 27 -16 31 -11 45 13 36 14 -5 15 -3 5 7 -10 11 -10 17 1 29
7 9 17 26 20 39 11 34 -19 28 -34 -8z"/>
<path d="M4900 3530 c0 -11 6 -20 13 -20 7 0 18 9 25 20 11 18 10 20 -13 20
-18 0 -25 -5 -25 -20z"/>
<path d="M4835 3520 c-3 -5 -1 -10 4 -10 6 0 11 5 11 10 0 6 -2 10 -4 10 -3 0
-8 -4 -11 -10z"/>
<path d="M3830 3466 c0 -20 5 -36 10 -36 12 0 10 59 -2 66 -4 3 -8 -11 -8 -30z"/>
<path d="M5850 3490 c0 -5 5 -10 11 -10 5 0 7 5 4 10 -3 6 -8 10 -11 10 -2 0
-4 -4 -4 -10z"/>
<path d="M4661 3477 c-16 -16 -14 -27 4 -21 8 4 15 1 15 -5 0 -6 5 -11 10 -11
14 0 12 19 -4 35 -10 10 -16 11 -25 2z"/>
<path d="M3720 3454 c0 -8 6 -14 14 -14 8 0 16 -5 18 -12 3 -8 6 -7 10 3 4 9
-3 19 -18 26 -19 9 -24 8 -24 -3z"/>
<path d="M4191 3444 c0 -11 3 -14 6 -6 3 7 2 16 -1 19 -3 4 -6 -2 -5 -13z"/>
<path d="M5456 3381 c-4 -5 -2 -12 3 -15 5 -4 12 -2 15 3 4 5 2 12 -3 15 -5 4
-12 2 -15 -3z"/>
<path d="M3750 3370 c1 -17 28 -56 34 -49 3 3 -4 18 -14 34 -11 17 -20 23 -20
15z"/>
<path d="M3815 3370 c3 -5 8 -10 11 -10 2 0 4 5 4 10 0 6 -5 10 -11 10 -5 0
-7 -4 -4 -10z"/>
<path d="M3940 3320 c0 -5 5 -10 11 -10 5 0 7 5 4 10 -3 6 -8 10 -11 10 -2 0
-4 -4 -4 -10z"/>
<path d="M4030 3305 c0 -9 6 -18 14 -21 8 -3 17 -25 21 -49 7 -49 25 -71 25
-31 0 14 -4 28 -10 31 -5 3 -10 12 -9 18 0 9 2 9 6 0 7 -18 23 -16 23 2 0 9
-11 20 -25 25 -14 5 -25 16 -25 25 0 8 -4 15 -10 15 -5 0 -10 -7 -10 -15z"/>
<path d="M4090 3290 c0 -5 7 -10 15 -10 8 0 15 5 15 10 0 6 -7 10 -15 10 -8 0
-15 -4 -15 -10z"/>
<path d="M4130 3293 c0 -4 5 -15 10 -23 7 -11 12 -12 21 -3 8 8 6 14 -10 22
-12 7 -21 8 -21 4z"/>
<path d="M4120 3242 c0 -5 7 -16 16 -23 14 -12 16 -11 13 5 -4 20 -29 35 -29
18z"/>
<path d="M4020 3200 c0 -5 5 -10 10 -10 6 0 10 5 10 10 0 6 -4 10 -10 10 -5 0
-10 -4 -10 -10z"/>
<path d="M5712 3184 c-6 -7 -8 -15 -3 -19 5 -3 12 1 15 7 3 7 3 3 1 -8 -3 -13
0 -24 7 -27 8 -3 13 4 13 18 0 30 -17 46 -33 29z"/>
<path d="M6178 3163 c7 -3 16 -2 19 1 4 3 -2 6 -13 5 -11 0 -14 -3 -6 -6z"/>
<path d="M6090 3136 c0 -9 5 -16 10 -16 6 0 10 4 10 9 0 6 -4 13 -10 16 -5 3
-10 -1 -10 -9z"/>
<path d="M6120 3140 c0 -5 5 -10 10 -10 6 0 10 5 10 10 0 6 -4 10 -10 10 -5 0
-10 -4 -10 -10z"/>
<path d="M5082 3115 c0 -16 2 -22 5 -12 2 9 2 23 0 30 -3 6 -5 -1 -5 -18z"/>
<path d="M4220 3100 c-6 -11 -8 -20 -6 -20 3 0 10 9 16 20 6 11 8 20 6 20 -3
0 -10 -9 -16 -20z"/>
<path d="M4987 3091 c-4 -17 -3 -21 5 -13 5 5 8 16 6 23 -3 8 -7 3 -11 -10z"/>
<path d="M5981 3094 c0 -11 3 -14 6 -6 3 7 2 16 -1 19 -3 4 -6 -2 -5 -13z"/>
<path d="M4931 3064 c0 -11 3 -14 6 -6 3 7 2 16 -1 19 -3 4 -6 -2 -5 -13z"/>
<path d="M5090 3071 c0 -5 5 -13 10 -16 6 -3 10 -2 10 4 0 5 -4 13 -10 16 -5
3 -10 2 -10 -4z"/>
<path d="M5940 3060 c-8 -5 -10 -10 -5 -10 6 0 17 5 25 10 8 5 11 10 5 10 -5
0 -17 -5 -25 -10z"/>
<path d="M4140 3041 c0 -5 5 -13 10 -16 6 -3 10 -2 10 4 0 5 -4 13 -10 16 -5
3 -10 2 -10 -4z"/>
<path d="M5800 3046 c0 -2 7 -9 15 -16 13 -11 14 -10 9 4 -5 14 -24 23 -24 12z"/>
<path d="M5155 3030 c3 -5 8 -10 11 -10 2 0 4 5 4 10 0 6 -5 10 -11 10 -5 0
-7 -4 -4 -10z"/>
<path d="M4890 3009 c0 -11 -5 -29 -10 -40 -8 -15 -7 -19 5 -19 8 0 15 -6 15
-14 0 -7 9 -16 20 -19 13 -3 18 -10 14 -21 -4 -10 -1 -16 9 -16 18 0 17 52 0
57 -6 2 -8 14 -6 27 4 17 -1 25 -16 29 -14 3 -19 10 -15 21 3 9 1 16 -5 16 -6
0 -11 -9 -11 -21z"/>
<path d="M5775 3000 c3 -5 11 -10 16 -10 6 0 7 5 4 10 -3 6 -11 10 -16 10 -6
0 -7 -4 -4 -10z"/>
<path d="M6010 3000 c0 -5 5 -10 10 -10 6 0 10 5 10 10 0 6 -4 10 -10 10 -5 0
-10 -4 -10 -10z"/>
<path d="M4855 2990 c3 -5 8 -10 11 -10 2 0 4 5 4 10 0 6 -5 10 -11 10 -5 0
-7 -4 -4 -10z"/>
<path d="M5740 2991 c0 -5 7 -11 14 -14 10 -4 13 -1 9 9 -6 15 -23 19 -23 5z"/>
<path d="M4880 2901 c0 -11 26 -22 34 -14 3 3 3 10 0 14 -7 12 -34 11 -34 0z"/>
<path d="M4360 2890 c0 -5 5 -10 11 -10 5 0 7 5 4 10 -3 6 -8 10 -11 10 -2 0
-4 -4 -4 -10z"/>
<path d="M5270 2871 c0 -11 4 -22 9 -25 4 -3 6 6 3 19 -5 30 -12 33 -12 6z"/>
<path d="M4920 2832 c0 -5 5 -13 12 -20 16 -16 29 -15 22 2 -6 16 -34 30 -34
18z"/>
<path d="M5290 2817 c0 -8 7 -17 15 -21 8 -3 15 -2 15 3 0 5 -7 14 -15 21 -12
10 -15 10 -15 -3z"/>
<path d="M4656 2795 c8 -37 14 -45 14 -19 0 10 -5 26 -10 34 -8 11 -9 7 -4
-15z"/>
<path d="M5020 2800 c0 -6 7 -13 15 -17 24 -9 27 1 5 15 -13 8 -20 8 -20 2z"/>
<path d="M5630 2790 c0 -5 5 -10 10 -10 6 0 10 5 10 10 0 6 -4 10 -10 10 -5 0
-10 -4 -10 -10z"/>
<path d="M5400 2760 c0 -5 5 -10 11 -10 5 0 7 5 4 10 -3 6 -8 10 -11 10 -2 0
-4 -4 -4 -10z"/>
<path d="M4866 2729 c-6 -32 1 -59 15 -59 5 0 7 11 3 25 -4 18 -1 27 10 31 22
8 20 21 -3 27 -15 3 -20 -2 -25 -24z"/>
<path d="M4826 2705 c4 -8 7 -15 9 -15 2 0 5 7 9 15 3 9 0 15 -9 15 -9 0 -12
-6 -9 -15z"/>
<path d="M5590 2711 c0 -5 5 -13 10 -16 6 -3 10 -2 10 4 0 5 -4 13 -10 16 -5
3 -10 2 -10 -4z"/>
<path d="M5070 3757 c0 -8 7 -17 15 -21 8 -3 15 -3 15 0 0 3 -7 12 -15 20 -13
13 -15 13 -15 1z"/>
<path d="M5200 2540 c0 -5 5 -10 11 -10 5 0 7 5 4 10 -3 6 -8 10 -11 10 -2 0
-4 -4 -4 -10z"/>
</g>
</svg>
